<svg label="微信公众号Design-AI-Lab版权所有-合作请联系" viewBox="0 0 261 319" version="1.1" xmlns="http://www.w3.org/2000/svg" xmlns:xlink="http://www.w3.org/1999/xlink">
  <g id="Vim" stroke="none" stroke-width="1" fill="none" fill-rule="evenodd">
    <g id="Artboard-2">

      <g>
        <animateTransform attributeName="transform" type="translate" values="0 0;-640 0;-1280 0;-1920 0;-2560 0;-1920 0;-1280 0;-640 0" repeatCount="indefinite" fill="freeze" begin="0s" end="click" dur="2s" calcMode="discrete"></animateTransform>
        <g>
          <g transform="translate(640,0)">
            <rect id="Rectangle-2" fill="#FFB173" x="21" y="19" width="221" height="284"></rect>
            <path

              d="M169.394918,254.476581 C179.670564,245.657678 178.387509,222.04162 177.238923,201.210183 C176.975588,196.408532 176.72346,191.780569 176.633814,187.600834 C176.294817,180.588549 170.376299,175.154705 163.360637,175.414612 C160.751487,175.40661 158.193312,176.136962 155.981669,177.521288 C153.926198,171.815978 148.396944,168.1124 142.338703,168.383022 C140.036495,168.375637 137.760641,168.872883 135.671298,169.839766 L143.789844,110.130078 C144.274787,106.554047 143.290886,102.934055 141.06248,100.095503 C138.834074,97.2569518 135.551133,95.441822 131.962205,95.0639849 C124.759449,94.3636536 118.294217,99.489287 117.333135,106.661907 L108.553452,177.336393 L94.7143857,119.979907 C93.7381769,114.910797 90.0794052,110.775297 85.1670531,109.188583 C80.254701,107.601869 74.8680812,108.815663 71.1110106,112.355901 C67.35394,115.896139 65.8224533,121.201185 67.1146933,126.199083 L78.880701,181.16875 C77.726672,181.292177 76.5953287,181.575013 75.5189845,182.009179 C70.3360944,184.450897 66.0784015,188.498358 63.3775851,193.551073 C56.8304028,205.918028 56.2310155,220.583449 61.7471526,233.443442 C66.1341926,244.049657 78.880701,255.619565 86.489386,262.533495 C88.2430815,264.124708 90.192877,265.895212 91.078129,266.825287 L91.078129,278.24952 L83.8504386,278.24952 C82.9588559,278.24952 82.1037902,278.6037 81.473346,279.234144 C80.8429019,279.864588 80.4887221,280.719654 80.4887221,281.611236 L80.4887221,326.316463 C80.4887221,327.208045 80.8429019,328.063111 81.473346,328.693555 C82.1037902,329.324 82.9588559,329.678179 83.8504386,329.678179 L171.955425,329.678179 C173.81205,329.678179 175.317142,328.173088 175.317142,326.316463 L175.317142,281.605633 C175.317142,279.749009 173.81205,278.243917 171.955425,278.243917 L161.948716,278.243917 C161.618147,272.82595 161.870276,260.908665 169.394918,254.476581 Z M168.588106,322.960349 L87.2121551,322.960349 L87.2121551,284.972953 L168.593709,284.972953 L168.588106,322.960349 Z M97.762342,278.24952 L97.762342,265.799963 C97.762342,263.726904 96.596947,262.656758 90.9716747,257.552552 C83.7776014,251.019616 71.7314506,240.077229 67.9271081,230.866126 C63.1839408,219.877829 63.6700794,207.332983 69.2493832,196.744703 C71.2650347,192.964708 74.443475,189.9336 78.3148121,188.099489 C78.9238107,187.922698 79.5487473,187.806344 80.1805647,187.752112 C80.868972,191.305912 80.6882863,194.973446 79.6538958,198.44237 C78.9656242,200.565423 78.6121447,202.782703 78.6061608,205.014526 C78.5573373,211.004439 79.6783307,216.946276 81.9062459,222.506657 C82.4006681,223.601592 83.4416739,224.349583 84.6371266,224.468868 C85.8325792,224.588154 87.000861,224.060611 87.7018915,223.084962 C88.4029219,222.109312 88.5301978,220.833779 88.0357756,219.738844 C86.2000069,215.049071 85.2813316,210.050565 85.3295938,205.014526 C85.337797,203.478372 85.5854284,201.952886 86.0635686,200.493017 C87.5620039,195.584852 87.755115,190.370854 86.6238547,185.365293 L73.6756433,124.792764 C72.6554844,120.670816 75.1604998,116.499966 79.2785041,115.464001 C81.2623746,115.088646 83.3140895,115.517206 84.9818312,116.655306 C86.649573,117.793405 87.7965727,119.547711 88.1702443,121.531899 L103.729389,185.998416 C104.094086,187.506858 105.443954,188.569619 106.995857,188.570129 L110.962682,188.570129 C112.666862,188.583489 114.111422,187.3195 114.324399,185.628627 L124.006142,107.496733 C124.507862,103.953331 127.697317,101.423934 131.261847,101.742595 C133.042305,101.932262 134.670288,102.834197 135.775258,104.243113 C136.880228,105.652029 137.368176,107.448058 137.128042,109.222414 L128.051408,176.142984 L128.174671,194.184196 C128.061726,196.040821 129.475258,197.637472 131.331883,197.750417 C133.188507,197.863361 134.785159,196.449829 134.898104,194.593205 L134.898104,180.714918 C134.898104,177.672565 138.29904,175.112058 142.321894,175.112058 C145.854142,174.716964 149.092664,177.114693 149.745685,180.608464 L150.087459,193.674336 L150.087459,198.660882 C150.087459,199.552464 150.441639,200.40753 151.072083,201.037974 C151.702527,201.668418 152.557593,202.022598 153.449176,202.022598 L153.449176,202.022598 C155.305801,202.022598 156.810892,200.517506 156.810892,198.660882 L156.810892,187.880977 C157.246008,184.615063 160.015766,182.165693 163.310379,182.13331 C166.604991,182.100927 169.422359,184.495381 169.921587,187.752112 C170.016835,192.004683 170.268964,196.716689 170.532298,201.574369 C171.524005,219.901327 172.773443,242.716176 165.002275,249.377978 C155.393369,257.619786 154.810671,271.503675 155.169254,278.24952 L97.762342,278.24952 Z"
              id="Shape"
              fill="#000000"
              fill-rule="nonzero"></path>
          </g>
          <g transform="translate(1280,0)">
            <rect id="Rectangle-2" fill="#C7FF73" x="21" y="19" width="221" height="284"></rect>
            <path

              d="M174.050031,143.142014 C170.862673,142.665368 167.612295,143.398112 164.937745,145.196229 C162.311877,146.927966 160.535877,149.684685 160.0445,152.791556 L154.013537,183.341416 C151.402474,179.471508 146.992033,177.207654 142.325581,177.342056 C139.416182,177.321909 136.567953,178.177112 134.15086,179.796579 C131.899067,175.118671 127.12135,172.1882 121.930916,172.301329 C118.931412,172.28684 116.009227,173.252271 113.608713,175.050816 C111.524225,170.234597 106.778941,167.115912 101.530984,167.11312 C94.0555819,167.262984 88.1102171,173.432125 88.2365277,180.907962 L88.2365277,189.056347 L84.5494756,189.056347 C82.7978573,189.072745 81.0687635,189.453002 79.4718782,190.172997 C74.5979102,192.463618 70.5944058,196.267594 68.0578185,201.018197 C61.8996716,212.645322 61.3361464,226.435228 66.5250583,238.526051 C70.6440221,248.496893 82.6269413,259.373697 89.7850896,265.873443 C91.4337286,267.369333 93.2614529,269.033773 94.0936733,269.908131 L94.0936733,281.496009 L86.3455967,281.496009 C84.6001945,281.496009 83.1852664,282.910937 83.1852664,284.65634 L83.1852664,326.688733 C83.1852664,328.434135 84.6001945,329.849064 86.3455967,329.849064 L169.167321,329.849064 C170.912723,329.849064 172.327651,328.434135 172.327651,326.688733 L172.327651,284.65634 C172.327651,283.818168 171.994688,283.014326 171.402012,282.421649 C170.809335,281.828972 170.005492,281.496009 169.167321,281.496009 L160.808247,281.496009 C160.434274,276.918798 160.244655,264.76206 167.766241,258.320253 C175.930427,251.314855 178.44289,220.048653 180.886879,179.907191 C181.497876,169.831004 182.029865,161.129561 182.661931,155.988757 C183.412938,153.127292 182.899622,150.081119 181.252338,147.623794 C179.605053,145.166468 176.982271,143.53439 174.050031,143.142014 Z M166.012257,323.53367 L89.5006598,323.53367 L89.5006598,287.811403 L166.012257,287.811403 L166.012257,323.53367 Z M176.388675,155.198674 C175.73554,160.529098 175.198284,169.325351 174.58202,179.506882 C173.133535,203.330506 170.431453,247.680475 163.652544,253.506017 C154.171553,261.628066 154.039873,275.565123 154.466517,281.496009 L100.424868,281.496009 L100.424868,268.944231 C100.424868,266.99536 99.3292872,265.989322 94.0462683,261.196154 C87.2831614,255.049312 75.9586443,244.767704 72.3822038,236.103131 C67.9154232,225.772244 68.3745269,213.973086 73.6305343,204.020511 C75.5278668,200.460064 78.5244016,197.607629 82.1739607,195.887928 C82.9552057,195.547241 83.7972829,195.368076 84.6495528,195.361206 L87.3990402,195.361206 C86.7830012,197.731405 85.9105164,200.027417 84.7970348,202.208588 C83.2629068,205.165421 82.4489662,208.442841 82.4215199,211.773855 C82.3740923,217.402868 83.4261474,222.986991 85.5186436,228.21284 C86.2634493,229.753651 88.0994085,230.421647 89.6602161,229.719712 C91.2210238,229.017776 91.9395081,227.200981 91.2809793,225.621369 C89.5582092,221.210003 88.696414,216.509464 88.7421806,211.773855 C88.7749576,209.428872 89.3596024,207.124577 90.4487589,205.047618 C93.0434379,200.121431 94.4452623,194.654856 94.5413867,189.08795 L94.5413867,180.934298 C94.4140011,176.945737 97.5326254,173.603514 101.52045,173.454849 C105.457085,173.558324 108.573209,176.817907 108.499512,180.755212 L108.615391,200.53888 C108.613551,202.228273 109.940687,203.620373 111.628239,203.699211 L111.770454,203.699211 C113.410556,203.705866 114.783188,202.45677 114.930785,200.82331 L114.930785,184.805703 C115.382747,181.320298 118.333601,178.700626 121.848004,178.664818 C125.362408,178.629011 128.366026,181.188016 128.88891,184.663488 L129.010056,201.623927 C129.006874,203.29597 130.306636,204.681151 131.9755,204.784258 C133.650237,204.910829 135.124344,203.688228 135.309648,202.018968 L135.309648,188.972071 C135.309648,186.111972 138.506849,183.704854 142.288711,183.704854 C145.608641,183.336085 148.651541,185.58898 149.267774,188.871994 L149.589074,201.165679 L149.589074,205.853503 C149.595265,207.477988 150.832022,208.833181 152.449173,208.987497 C154.060312,209.12301 155.519759,208.036332 155.851795,206.453965 L166.217679,153.88187 C166.441033,152.472071 167.250427,151.22258 168.445712,150.442377 C169.808788,149.525385 171.469916,149.161896 173.091397,149.425804 C174.29759,149.562752 177.031276,149.957793 176.388675,155.198674 Z"
              id="Shape"
              fill="#000000"
              fill-rule="nonzero"></path>
          </g>
          <g transform="translate(1920,0)">
            <rect id="Rectangle-2" fill="#73FFF5" x="21" y="19" width="221" height="284"></rect>
            <path

              d="M173.599263,255.079334 C185.31284,245.023234 183.221527,215.772664 182.098002,200.048884 L181.920018,197.456991 C181.845114,191.118543 179.175508,185.087807 174.533679,180.770984 C171.322552,178.0747 167.398794,176.36687 163.237252,175.854174 L169.705861,118.192896 C169.852612,111.090146 164.384237,105.129463 157.295177,104.6649 C150.206116,104.200336 144.006613,109.396394 143.225168,116.457551 L138.2583,153.433743 L136.456211,109.226948 C136.454842,105.649033 135.004602,102.224177 132.436158,99.7332787 C129.867714,97.2423807 126.40002,95.8977837 122.823744,96.0060689 C115.644857,96.2613702 109.966189,102.171518 109.997767,109.354874 L109.942146,164.930401 L99.4633342,121.563469 C98.4942443,116.531325 94.862154,112.425983 89.9856249,110.850841 C85.1090959,109.275698 79.7617577,110.48064 76.0320853,113.995061 C72.3024129,117.509482 70.7820945,122.775841 72.0649109,127.737292 L83.6672477,182.050244 C82.5461227,182.329011 81.4502925,182.701109 80.3912283,183.162645 C75.2461341,185.586557 71.0194902,189.604501 68.3383694,194.62037 C61.838932,206.897139 61.2439157,221.455614 66.7198267,234.221826 C71.0748745,244.750696 83.7284297,256.236231 91.2816288,263.099742 C93.0225355,264.67935 94.9581123,266.436943 95.8369087,267.360235 L95.8369087,278.701158 L88.6786117,278.701158 C87.7935309,278.701158 86.9447007,279.052755 86.318854,279.678602 C85.6930074,280.304448 85.3414104,281.153279 85.3414104,282.03836 L85.3414104,326.417576 C85.3414104,328.260661 86.8355263,329.754777 88.6786117,329.754777 C90.5216972,329.754777 92.0158131,328.260661 92.0158131,326.417576 L92.0158131,285.369999 L172.803896,285.369999 L172.803896,326.417576 C172.803896,328.260661 174.298012,329.754777 176.141098,329.754777 C177.984183,329.754777 179.478299,328.260661 179.478299,326.417576 L179.478299,282.01055 C179.478299,280.167464 177.984183,278.673348 176.141098,278.673348 L166.207362,278.673348 C165.879204,273.294892 166.129494,261.464513 173.599263,255.079334 Z M102.489063,278.67891 L102.489063,266.320141 C102.489063,264.2622 101.332167,263.199858 95.7479166,258.132874 C88.6063057,251.647579 76.6480008,240.784989 72.8714012,231.641057 C68.1628232,220.732892 68.6454166,208.279528 74.1840338,197.768463 C76.1891907,194.000653 79.3572083,190.980892 83.2167255,189.158483 C83.7996262,188.93044 84.3981546,188.744562 85.0076902,188.602283 C85.7422192,192.207838 85.5760116,195.938912 84.523796,199.464874 C83.8405436,201.572444 83.4896419,203.773555 83.4837016,205.989102 C83.4352341,211.935335 84.5480528,217.833841 86.7597209,223.353673 C87.2505376,224.440624 88.283952,225.18316 89.4706869,225.301575 C90.6574218,225.41999 91.8171839,224.896295 92.5131021,223.92776 C93.2090204,222.959226 93.3353681,221.692995 92.8445514,220.606044 C91.02217,215.950471 90.110194,210.988416 90.1581043,205.989102 C90.1662477,204.464151 90.4120733,202.94979 90.8867266,201.500566 C92.3742347,196.628194 92.5659375,191.452219 91.4429269,186.48316 L78.5780156,126.341229 C77.5652961,122.24934 80.0520438,118.108905 84.1400179,117.080496 C88.2399146,116.311025 92.1888658,119.005867 92.9669155,123.104144 L108.362538,186.98374 L109.958832,194.720486 C110.321757,196.385591 111.865271,197.521789 113.56301,197.373561 C115.27246,197.198885 116.56983,195.754687 116.560929,194.036359 L116.644359,109.327064 C116.623987,105.756224 119.444291,102.815225 123.012852,102.686034 C124.785735,102.643127 126.502808,103.307542 127.78505,104.532618 C129.091881,105.802313 129.816416,107.555286 129.787371,109.377122 L132.568372,177.328104 L132.92434,193.113067 L132.712984,194.831726 C132.514369,196.639915 133.800454,198.274084 135.604668,198.506055 C137.408881,198.738025 139.06652,197.482334 139.331767,195.682712 L149.899571,116.913636 C149.899571,113.893468 153.275706,111.351633 157.269224,111.351633 C161.362858,111.351633 162.992524,115.662185 163.081516,117.92592 L156.279188,178.268083 C156.244584,178.418259 156.220424,178.570652 156.206882,178.724167 L154.432603,194.720486 L154.432603,199.670668 C154.431048,201.460788 155.842187,202.933281 157.630754,203.007869 L157.764242,203.007869 C159.502004,203.014157 160.953744,201.685815 161.101444,199.95433 L162.575374,182.528577 C165.360969,182.899242 167.986109,184.046054 170.150821,185.837968 C173.416415,189.008243 175.256769,193.367295 175.251177,197.918637 L175.434723,200.53834 C176.319082,212.991663 178.404833,242.158803 169.244215,250.04016 C159.705381,258.221866 159.126933,272.004507 159.482901,278.701158 L102.489063,278.67891 Z"
              id="Shape"
              fill="#000000"
              fill-rule="nonzero"></path>
          </g>
          <g transform="translate(2560,0)">
            <rect id="Rectangle-2" fill="#7373FF" x="21" y="19" width="221" height="284"></rect>
            <path

              d="M174.396897,253.504041 C184.671377,244.685345 183.389167,221.084835 182.235738,200.255915 C181.978176,195.468623 181.726213,190.849307 181.636626,186.672324 C181.297852,179.664656 175.383231,174.234389 168.372188,174.494125 C165.764756,174.486128 163.208266,175.216 160.998078,176.599414 C158.936663,170.885864 153.392291,167.182805 147.324901,167.467165 C144.232143,167.445748 141.20441,168.354848 138.634986,170.076379 C136.241278,165.103656 131.162456,161.988499 125.644907,162.108757 C122.965758,162.10003 120.334953,162.822098 118.035632,164.197248 C117.498983,156.802409 111.373363,151.059335 103.959314,151 C96.0127912,151.159309 89.6927329,157.717246 89.827004,165.664231 L89.827004,179.897326 L85.9075836,179.897326 C84.0455734,179.914757 82.2075073,180.318979 80.5099819,181.084351 C75.3288428,183.519333 71.0730264,187.563046 68.3765763,192.613046 C61.8303258,204.972945 61.2312857,219.631929 66.7472172,232.484749 C71.1257697,243.083982 83.8638858,254.646272 91.4731605,261.55565 C93.2257013,263.145815 95.168614,264.915153 96.0532831,265.844615 L96.0532831,278.162794 L87.8448971,278.162794 C85.9894947,278.162794 84.4853939,279.666895 84.4853939,281.522297 L84.4853939,326.203689 C84.485394,328.059091 85.9894948,329.563192 87.8448971,329.563192 C89.7002994,329.563192 91.2044001,328.059091 91.2044002,326.203689 L91.2044002,284.876201 L172.532373,284.876201 L172.532373,326.203689 C172.532373,328.059091 174.036473,329.563192 175.891876,329.563192 C177.747278,329.563192 179.251379,328.059091 179.251379,326.203689 L179.251379,281.522297 C179.251379,280.631301 178.897432,279.776798 178.267403,279.146769 C177.637374,278.51674 176.782871,278.162794 175.891876,278.162794 L167.000391,278.162794 C166.602849,273.297113 166.39568,260.374225 174.396897,253.504041 Z M102.811484,278.140397 L102.811484,264.819967 C102.811484,262.748273 101.646856,261.678832 96.0308865,256.583585 C88.8415497,250.049351 76.80333,239.119768 73.0014923,229.90913 C68.2532027,218.927161 68.7412404,206.384388 74.328496,195.804574 C76.3454037,192.019737 79.5307885,188.987534 83.4103529,187.159452 C84.2408342,186.797295 85.1359815,186.606838 86.0419637,186.599535 L88.9647315,186.599535 C88.309868,189.119111 87.3823968,191.559824 86.1987405,193.878459 C84.5679275,197.021639 83.70269,200.505611 83.673514,204.046555 C83.6230974,210.030324 84.7414559,215.966374 86.9658271,221.52157 C87.7575726,223.159488 89.7092389,223.869583 91.3684131,223.123409 C93.0275872,222.377236 93.7913524,220.445941 93.0913212,218.766778 C91.2599774,214.077395 90.3438694,209.080615 90.3925203,204.046555 C90.4273631,201.553784 91.0488538,199.104267 92.206652,196.896412 C94.9648548,191.659762 96.4550262,185.84867 96.5572086,179.930921 L96.5572086,165.664231 C96.4217948,161.4243 99.7369634,157.871441 103.976111,157.713407 C108.156401,157.823397 111.46713,161.281547 111.395014,165.462661 L111.529394,174.824477 C111.529394,175.00365 111.529394,175.188423 111.529394,175.384394 L111.529394,192.103521 C111.527438,193.899384 112.938214,195.379218 114.732121,195.463024 C115.609422,195.557067 116.486136,195.280455 117.150616,194.699966 C117.815096,194.119476 118.206958,193.28786 118.231603,192.405876 L118.45557,189.695877 L118.254,175.059642 C118.879122,171.425095 122.051219,168.782586 125.738896,168.824364 C129.426574,168.866143 132.537989,171.57984 133.080607,175.227617 L133.209388,193.256951 C133.206005,195.03437 134.587682,196.506849 136.361722,196.616454 C138.142006,196.751002 139.709015,195.451349 139.905998,193.676888 L139.905998,179.80774 C139.905998,176.767389 143.304695,174.208568 147.324901,174.208568 C150.854062,173.816558 154.088734,176.211436 154.743803,179.701355 L155.085353,192.769823 L155.085353,197.753086 C155.085353,198.644081 155.439299,199.498584 156.069329,200.128613 C156.699358,200.758642 157.55386,201.112589 158.444856,201.112589 L158.444856,201.112589 C160.300258,201.112589 161.804359,199.608488 161.804359,197.753086 L161.804359,186.952283 C162.248032,183.694236 165.01457,181.254852 168.302529,181.222549 C171.590487,181.190245 174.40442,183.574801 174.912021,186.823502 C175.007207,191.067674 175.259169,195.754181 175.516731,200.625461 C176.513384,218.945951 177.7564,241.74578 169.990349,248.408794 C159.911839,257.042717 159.77186,271.858126 160.225393,278.162794 L102.811484,278.140397 Z"
              id="Shape"
              fill="#000000"
              fill-rule="nonzero"></path>
          </g>
          <g>
            <rect id="Rectangle-2" fill="#F873FF" x="21" y="19" width="221" height="284"></rect>
            <path
              d="M203.598335,203.601447 C197.84355,203.601447 191.473634,207.566757 184.102223,212.167535 C182.139903,213.38763 180.111494,214.65348 178.001745,215.89391 C175.236195,217.520704 174.041518,216.829317 173.650071,216.600549 C169.654258,214.262032 168.154557,202.020406 168.266399,196.265622 C168.342655,193.444151 174.290621,161.065863 178.032248,141.244392 C179.316081,134.197476 174.688847,127.430062 167.656351,126.069453 C164.492527,125.411472 161.197248,126.076405 158.536136,127.909764 C155.484404,129.997482 153.398335,133.222739 152.745766,136.862216 L147.662034,166.480037 L147.662034,125.052707 C147.23484,118.315441 141.673414,113.053892 134.92283,113.000411 C128.172246,112.94693 122.528156,118.119706 121.994272,124.849357 L121.953602,149.042837 L120.143794,133.405278 C119.650081,126.792956 113.930265,121.807379 107.312454,122.221068 C100.457887,122.300943 94.8473614,127.697734 94.5014503,134.544034 L101.237395,202.498277 C97.2834411,194.514802 94.7053634,185.921209 93.6117972,177.079618 C92.706893,167.781472 89.1533644,163.068853 83.0325513,163.068853 C76.6737427,162.84457 71.3168249,167.775472 71.0146094,174.131053 C70.5977433,193.088289 79.1485802,251.622377 90.7039026,261.57124 C97.5262707,267.427699 97.7601224,278.225546 97.4754334,283.141514 L89.3821324,283.141514 C87.6975318,283.141514 86.3318933,284.507153 86.3318933,286.191754 L86.3318933,326.75485 C86.3318933,328.43945 87.6975318,329.805089 89.3821324,329.805089 L169.318731,329.805089 C171.003332,329.805089 172.36897,328.43945 172.36897,326.75485 L172.36897,286.176502 C172.36897,284.491902 171.003332,283.126263 169.318731,283.126263 L161.693134,283.126263 L161.693134,272.480929 C167.729197,265.880916 174.42745,259.918585 181.682367,254.687868 C189.089273,248.520956 195.673976,241.428817 201.275069,233.585297 C203.185939,230.961106 205.264434,228.463175 207.497557,226.107127 C209.154478,225.238722 211.020175,224.847982 212.886313,224.978539 C215.133248,225.015177 217.363725,224.5895 219.439243,223.727941 C222.168452,222.31646 223.695593,219.323508 223.236791,216.285358 C222.982604,211.532068 220.100128,203.601447 203.598335,203.601447 Z M166.268492,323.694443 L92.4323714,323.694443 L92.4323714,289.226741 L158.139605,289.226741 C158.453359,289.358645 158.807011,289.358645 159.120765,289.226741 L166.268492,289.226741 L166.268492,323.694443 Z M216.673693,218.268013 C215.340215,218.685769 213.947906,218.884916 212.550787,218.857726 C209.280344,218.660304 206.043672,219.611526 203.400069,221.54702 C200.885071,224.128822 198.560783,226.889764 196.445524,229.808084 C191.178595,237.194431 185.004326,243.889627 178.067834,249.736313 C177.839066,249.898992 155.567237,266.599051 155.567237,271.93697 L155.567237,283.12118 L103.575912,283.12118 C103.90127,277.020701 103.367479,264.397795 94.6539622,256.92471 C85.5845847,249.141516 76.6575517,194.033863 77.1150875,174.26323 C77.4152771,171.248647 80.0384999,169.006576 83.0630537,169.179499 C84.0798001,169.179499 86.7487593,169.179499 87.5977425,177.887931 C92.9661633,210.067954 102.686258,213.545226 104.577407,213.911255 C105.523722,214.095922 106.501634,213.8223 107.214696,213.173333 C107.927758,212.524366 108.292007,211.576472 108.197024,210.616997 L100.581594,134.315266 C101.008744,130.910657 103.88641,128.345734 107.317538,128.311379 C110.673892,127.986428 113.674915,130.402602 114.073818,133.750972 L121.902765,201.567954 C121.952232,202.357053 122.322544,203.091513 122.927568,203.600502 C123.532593,204.109491 124.319593,204.348643 125.105516,204.262332 C126.720256,204.16798 127.980578,202.829585 127.977824,201.212093 L128.09475,124.905278 C128.598234,121.550768 131.49625,119.079913 134.888171,119.113192 C138.280092,119.146472 141.12907,121.673712 141.566639,125.037455 L141.566639,202.355932 C141.560892,203.944266 142.775012,205.271173 144.357608,205.406171 C145.948057,205.556963 147.380764,204.442883 147.626448,202.864306 L158.754737,137.934883 C159.108849,135.923116 160.255289,134.137527 161.937153,132.978244 C163.282972,132.061396 164.943704,131.731085 166.53793,132.063173 C170.287306,132.813333 172.736684,136.438684 172.033444,140.197144 C170.40665,148.839488 162.257428,192.127464 162.181172,196.15378 C162.051558,202.889167 163.221842,209.586368 165.627942,215.878659 C160.678414,215.310637 155.69608,216.622446 151.668014,219.554197 C150.824755,220.295882 150.457252,221.44094 150.71139,222.534831 C150.965527,223.628722 151.800193,224.494486 152.884059,224.788453 C153.967926,225.08242 155.125656,224.757033 155.897679,223.941458 C158.703899,221.241996 167.905454,221.719867 173.538229,222.924711 C176.194728,223.257338 178.882415,222.626002 181.112989,221.145405 C183.258324,219.879556 185.332486,218.603539 187.335477,217.342774 C192.130742,213.634492 197.685591,211.030656 203.603419,209.717176 C209.617473,209.717176 216.821121,210.911853 217.141396,216.600549 C217.217652,217.988408 216.871959,218.161255 216.673693,218.268013 L216.673693,218.268013 Z"
              id="Shape"
              fill="#000000"
              fill-rule="nonzero"></path>
          </g>
        </g>
      </g>
    </g>
  </g>
</svg>
