
<svg  label="微信公众号Design-AI-Lab版权所有-合作请联系" viewBox="0 0 357 514" version="1.1" xmlns="http://www.w3.org/2000/svg" xmlns:xlink="http://www.w3.org/1999/xlink">

    <defs>
        <rect id="path-1" x="55" y="36" width="246" height="443"></rect>
        <clipPath id="c-star">
                       <rect  x="55" y="36" width="246" height="443"></rect>
                  </clipPath>
        <rect id="path-3" x="0" y="0" width="168" height="40" rx="20"></rect>
        <rect id="path-4" x="0" y="0" width="168" height="40" rx="20"></rect>
        <rect id="path-5" x="0" y="0" width="168" height="40" rx="20"></rect>
        <rect id="path-6" x="0" y="0" width="168" height="40" rx="20"></rect>
        <rect id="path-7" x="0" y="0" width="168" height="40" rx="20"></rect>
        <rect id="path-8" x="0" y="0" width="168" height="40" rx="20"></rect>
    </defs>
    <g id="Page-1" stroke="none" stroke-width="1" fill="none" fill-rule="evenodd" clip-path="url(#c-star)">
        <g id="vim1">
            <g id="Rectangle">
              <rect x="55" y="36" width="246" height="443" style="fill:rgb(255,255,255);stroke-width:1;
 stroke:rgb(155,155,155)"></rect>
            </g>
            <g id="end" transform="translate(72.000000, 447.000000)">
                <path d="M0.5,1.5 L203.561567,1.5" id="Line" stroke="#0E5AE5" stroke-width="0.5" stroke-linecap="square"></path>
                <path d="M106,5.73716476 L106.808046,5.73716476 L106.808046,7.73601536 C107.105747,7.33199237 107.47433,7.13352493 107.899617,7.13352493 C108.424138,7.13352493 108.835249,7.32490424 109.140038,7.70766287 C109.416475,8.062069 109.558238,8.50862073 109.558238,9.04731806 C109.558238,9.60727975 109.416475,10.0680077 109.13295,10.4224139 C108.821073,10.8051725 108.395785,10.9965518 107.857088,10.9965518 C107.375096,10.9965518 107.006513,10.833525 106.751341,10.5074713 L106.751341,10.8973181 L106,10.8973181 L106,5.73716476 Z M107.708238,7.78563222 C107.445977,7.78563222 107.233333,7.89195406 107.063218,8.10459774 C106.871839,8.33141767 106.779693,8.64329507 106.779693,9.03314181 L106.779693,9.0898468 C106.779693,9.44425293 106.850575,9.74195408 107.006513,9.96877401 C107.176628,10.2168583 107.417625,10.3444445 107.73659,10.3444445 C108.090996,10.3444445 108.353257,10.2168583 108.523372,9.96168589 C108.658046,9.74904221 108.728927,9.44425293 108.728927,9.04731806 C108.728927,8.65038319 108.650958,8.35268204 108.509195,8.14712648 C108.33908,7.90613031 108.069732,7.78563222 107.708238,7.78563222 Z M109.877203,7.23275865 L111.330268,10.8122606 L110.685249,12.3007664 L111.55,12.3007664 L113.534674,7.23275865 L112.655747,7.23275865 L111.727203,9.8411878 L110.75613,7.23275865 L109.877203,7.23275865 Z M121.338698,6.80747129 C121.296169,6.97758623 121.260728,7.13352493 121.218199,7.28946363 C121.317433,7.87068969 121.437931,8.38812265 121.579694,8.8417625 C121.735632,8.2463602 121.82069,7.56590042 121.849042,6.80747129 L121.338698,6.80747129 Z M121.296169,9.6852491 C121.14023,9.2457855 121.005556,8.76379315 120.892146,8.23218395 C120.792912,8.45900388 120.693678,8.67164756 120.587357,8.86302687 L120.183334,8.35268204 C120.183334,8.34559391 120.190422,8.33850579 120.190422,8.33850579 L118.014368,8.33850579 L118.014368,7.6863985 L120.282567,7.6863985 L120.282567,8.12586211 C120.615709,7.33199237 120.842529,6.3113027 120.970115,5.0637931 L121.608046,5.17720307 C121.565517,5.50325671 121.522989,5.82222223 121.473372,6.11992339 L122.706705,6.11992339 L122.706705,6.80747129 L122.472797,6.80747129 C122.437357,7.96992341 122.267242,8.96226059 121.955364,9.78448282 C122.19636,10.2877395 122.486973,10.6846744 122.813027,10.9681993 L122.38774,11.5919541 C122.104215,11.3084292 121.849042,10.9398468 121.629311,10.486207 C121.381226,10.9327587 121.083525,11.3155173 120.729119,11.6344828 L120.339272,11.010728 C120.736207,10.6704982 121.055173,10.2310346 121.296169,9.6852491 Z M119.573755,11.2446361 L119.268966,10.6350575 C119.354023,10.5854407 119.410728,10.5074713 119.431993,10.4082376 L119.431993,9.36628358 L118.879119,9.36628358 L118.879119,9.6852491 C118.864943,10.5358238 118.645211,11.180843 118.2341,11.6061304 L117.681226,11.124138 C118.021456,10.7909962 118.191571,10.3090039 118.198659,9.6852491 L118.198659,8.70000005 L120.077012,8.70000005 L120.077012,10.1247127 C120.23295,9.97586213 120.395977,9.81992343 120.559004,9.64980849 L120.707855,10.2664752 C120.339272,10.66341 119.956514,10.9894637 119.573755,11.2446361 Z M118.886207,5.07796935 L119.495786,5.07796935 L119.495786,6.6231801 L119.786399,6.6231801 L119.786399,5.46072798 L120.381801,5.46072798 L120.381801,7.24693489 L117.993104,7.24693489 L117.993104,5.46072798 L118.588506,5.46072798 L118.588506,6.6231801 L118.886207,6.6231801 L118.886207,5.07796935 Z M117.234674,5.07796935 L117.865517,5.3756705 C117.574904,6.13409963 117.078736,6.82164753 116.369924,7.44540233 L116.143104,6.72950194 C116.632184,6.26168584 116.993678,5.70881227 117.234674,5.07796935 Z M117.270115,6.97758623 L117.886782,7.27528739 C117.794636,7.51628356 117.688314,7.75019161 117.567816,7.96992341 L117.567816,11.6486591 L116.880268,11.6486591 L116.880268,8.9339081 C116.72433,9.10402304 116.561303,9.26704986 116.391188,9.42298856 L116.171456,8.72126442 C116.667625,8.22509583 117.036207,7.64386977 117.270115,6.97758623 Z M123.996744,7.99118778 C123.826629,8.2180077 123.649426,8.43065139 123.465134,8.64329507 L123.21705,7.84942532 C123.854981,7.04137934 124.336973,6.0915709 124.648851,5 L125.343487,5.32605364 C125.187548,5.85766285 124.981993,6.36091956 124.72682,6.8429119 L124.72682,11.6486591 L123.996744,11.6486591 L123.996744,7.99118778 Z M125.18046,5.90019158 L127.214751,5.90019158 C127.122606,5.67337166 127.023372,5.46072798 126.91705,5.24808429 L127.625862,5.05670498 C127.767625,5.36149426 127.873947,5.64501917 127.944828,5.90019158 L129.851533,5.90019158 L129.851533,6.59482761 L125.18046,6.59482761 L125.18046,5.90019158 Z M125.818391,6.97049811 L125.818391,7.62969352 L129.256131,7.62969352 L129.256131,6.97049811 L125.818391,6.97049811 Z M125.818391,7.96992341 L125.818391,8.63620694 L129.256131,8.63620694 L129.256131,7.96992341 L125.818391,7.96992341 Z M129.412069,9.02605369 L129.412069,11.6344828 L128.696169,11.6344828 L128.696169,11.2800767 L126.378353,11.2800767 L126.378353,11.6344828 L125.655364,11.6344828 L125.655364,9.02605369 L129.412069,9.02605369 Z M126.378353,10.5783526 L128.696169,10.5783526 L128.696169,9.71360159 L126.378353,9.71360159 L126.378353,10.5783526 Z M132.261495,5.13467433 L132.949042,5.41819924 C132.452874,6.89252876 131.793678,8.01954027 130.978544,8.80632189 L130.39023,8.29597705 C131.233717,7.50210731 131.857472,6.44597703 132.261495,5.13467433 Z M135.025862,8.89137936 C135.522031,9.64980849 135.954407,10.4649426 136.315901,11.3296936 L135.621265,11.641571 C135.529119,11.414751 135.436974,11.1950192 135.344828,10.9823756 C134.125671,11.1666667 132.757663,11.3013411 131.247893,11.4005748 L131.120307,10.6775863 C131.595211,10.5712644 132.296935,9.50095791 133.218391,7.4666667 L133.948468,7.72183912 C133.395594,8.86302687 132.828544,9.8411878 132.247318,10.6492338 C133.197127,10.5854407 134.132759,10.486207 135.040039,10.3444445 C134.820307,9.89789278 134.593487,9.48678167 134.359579,9.11819929 L135.025862,8.89137936 Z M134.905364,5.07796935 C135.288123,6.35383144 135.961495,7.39578547 136.925479,8.20383146 L136.39387,8.82049813 C135.380269,7.94865904 134.671456,6.82164753 134.267433,5.43237548 L134.905364,5.07796935 Z M140.462453,5.10632184 L141.015326,5.10632184 C141.865901,6.14118775 142.85115,6.95632186 143.971073,7.55172417 L143.581227,8.23927207 C142.468391,7.61551728 141.518583,6.79329504 140.738889,5.7796935 C140.008813,6.72950194 139.044828,7.54463605 137.846935,8.23218395 L137.471265,7.54463605 C138.669158,6.89252876 139.668583,6.07739465 140.462453,5.10632184 Z M139.087357,7.58716478 L139.789081,7.58716478 C139.789081,8.0904215 139.75364,8.54406135 139.689847,8.95517246 C140.108046,9.32375484 140.462453,9.69942535 140.760154,10.0680077 L140.228545,10.5996169 C140.044253,10.3019158 139.810345,9.99003838 139.52682,9.66398473 C139.519732,9.67107286 139.519732,9.67816098 139.519732,9.6852491 C139.307089,10.4224139 138.789656,11.0319924 137.967433,11.5139848 L137.506705,10.9540231 C138.187165,10.5500001 138.626629,10.0609196 138.832184,9.48678167 C138.995211,8.9977012 139.080269,8.36685828 139.087357,7.58716478 Z M141.5682,7.52337168 L142.277012,7.52337168 C142.277012,7.94865904 142.255748,8.34559391 142.213219,8.70000005 C142.546361,9.64272037 143.141763,10.3940614 143.992338,10.9540231 L143.517433,11.5139848 C142.872414,11.0390805 142.369158,10.4720307 142.000575,9.80574719 C141.787931,10.5074713 141.334292,11.0886974 140.639656,11.5565135 L140.186016,11.0036399 C140.781418,10.5854407 141.164177,10.082184 141.348468,9.48678167 C141.49023,8.98352496 141.561112,8.33141767 141.5682,7.52337168 Z M145.636782,5.26934866 L150.017242,5.26934866 L150.017242,7.36034486 L145.636782,7.36034486 L145.636782,5.26934866 Z M149.265901,6.70114945 L149.265901,5.9356322 L146.388123,5.9356322 L146.388123,6.70114945 L149.265901,6.70114945 Z M146.125863,8.48735637 L145.799809,9.77030657 L149.350958,9.77030657 C149.315518,10.2806514 149.258813,10.5996169 149.180843,10.7342913 C149.095786,10.8618775 148.883142,10.9327587 148.535824,10.9327587 C148.238123,10.9327587 147.904981,10.9114943 147.522223,10.8760537 L147.763219,11.5494254 C148.039656,11.584866 148.351533,11.6061304 148.698851,11.6061304 C149.223372,11.6061304 149.57069,11.4927204 149.754981,11.2729886 C149.939273,11.0461687 150.052683,10.3231801 150.109388,9.10402304 L146.685824,9.10402304 L146.877204,8.48735637 L151.059196,8.48735637 L151.059196,7.77145597 L144.58774,7.77145597 L144.58774,8.48735637 L146.125863,8.48735637 Z M154.227587,5.83639848 L156.077587,5.83639848 C156.899809,5.83639848 157.516476,6.0632184 157.941763,6.51685826 C158.345786,6.94214562 158.551342,7.55881229 158.551342,8.36685828 C158.551342,9.16781615 158.345786,9.78448282 157.941763,10.2168583 C157.516476,10.6704982 156.899809,10.8973181 156.077587,10.8973181 L154.227587,10.8973181 L154.227587,5.83639848 Z M155.056897,6.54521075 L155.056897,10.1885058 L155.921648,10.1885058 C156.552491,10.1885058 157.013219,10.0396552 157.303832,9.74904221 C157.587357,9.45134105 157.729119,8.99061308 157.729119,8.36685828 C157.729119,7.72892724 157.587357,7.26111114 157.303832,6.97758623 C157.013219,6.6869732 156.552491,6.54521075 155.921648,6.54521075 L155.056897,6.54521075 Z M160.819541,7.13352493 C161.422031,7.13352493 161.882759,7.33199237 162.201725,7.74310348 C162.492338,8.11168586 162.641188,8.62911882 162.641188,9.28831423 L159.898085,9.28831423 C159.926437,9.62854412 160.018583,9.89080466 160.174522,10.0680077 C160.33046,10.2452108 160.55728,10.3373564 160.847893,10.3373564 C161.095978,10.3373564 161.294445,10.2806514 161.450384,10.1672414 C161.570882,10.0750959 161.677204,9.92624527 161.776438,9.72068972 L162.584483,9.72068972 C162.499426,10.0609196 162.329311,10.3515326 162.074139,10.5783526 C161.748085,10.8547893 161.344062,10.9965518 160.854982,10.9965518 C160.309196,10.9965518 159.876821,10.8264369 159.557855,10.4932951 C159.217625,10.1459771 159.04751,9.67107286 159.04751,9.06149431 C159.04751,8.51570886 159.203449,8.062069 159.529503,7.69348662 C159.84138,7.31781612 160.273755,7.13352493 160.819541,7.13352493 Z M160.840805,7.79272034 C160.571457,7.79272034 160.365901,7.86360157 160.209962,8.01954027 C160.061112,8.16839085 159.961878,8.38812265 159.912261,8.67873568 L161.797702,8.67873568 C161.726821,8.08333337 161.407855,7.79272034 160.840805,7.79272034 Z M164.661303,7.13352493 C164.207664,7.13352493 163.846169,7.22567053 163.569733,7.42413796 C163.286208,7.60842915 163.151533,7.87068969 163.151533,8.21091958 C163.151533,8.5298851 163.293296,8.7779694 163.576821,8.95517246 C163.754024,9.06858243 164.058813,9.17490427 164.491188,9.27413799 C164.859771,9.35919546 165.100767,9.42298856 165.214177,9.47969354 C165.426821,9.57892726 165.533143,9.71360159 165.533143,9.88371654 C165.533143,10.1814177 165.249618,10.3373564 164.682568,10.3373564 C164.413219,10.3373564 164.22184,10.2877395 164.101342,10.2026821 C163.980844,10.1034483 163.895786,9.94042152 163.853257,9.70651347 L163.066476,9.70651347 C163.144445,10.5641763 163.690231,10.9965518 164.71092,10.9965518 C165.809579,10.9965518 166.362453,10.6067051 166.362453,9.82701156 C166.362453,9.50095791 166.213602,9.23869737 165.922989,9.05440618 C165.724522,8.91973185 165.412644,8.80632189 165.001533,8.70708817 C164.632951,8.61494258 164.391955,8.54406135 164.271457,8.49444449 C164.072989,8.40938702 163.980844,8.30306518 163.980844,8.18965521 C163.980844,8.04789276 164.037549,7.94865904 164.165135,7.88486594 C164.271457,7.82107283 164.434484,7.79272034 164.647127,7.79272034 C164.895211,7.79272034 165.079503,7.82816096 165.200001,7.90613031 C165.313411,7.97701153 165.398468,8.11168586 165.455173,8.29597705 L166.241955,8.29597705 C166.156897,7.51628356 165.625288,7.13352493 164.661303,7.13352493 Z M167.546169,5.73716476 C167.390231,5.73716476 167.262644,5.78678162 167.156323,5.88601534 C167.050001,5.98524905 167.000384,6.11283526 167.000384,6.26877396 C167.000384,6.42471266 167.050001,6.55229887 167.156323,6.65862071 C167.262644,6.75785443 167.390231,6.80747129 167.546169,6.80747129 C167.702108,6.80747129 167.829694,6.75785443 167.936016,6.65862071 C168.042338,6.55938699 168.099043,6.42471266 168.099043,6.26877396 C168.099043,6.11283526 168.042338,5.98524905 167.943104,5.88601534 C167.836782,5.78678162 167.702108,5.73716476 167.546169,5.73716476 Z M167.142146,7.23275865 L167.142146,10.8973181 L167.950192,10.8973181 L167.950192,7.23275865 L167.142146,7.23275865 Z M170.473564,7.13352493 C170.927204,7.13352493 171.288698,7.310728 171.558047,7.67931038 L171.558047,7.23275865 L172.366093,7.23275865 L172.366093,10.66341 C172.366093,11.818774 171.791955,12.4000001 170.643679,12.4000001 C170.126246,12.4000001 169.736399,12.3007664 169.467051,12.1164752 C169.197702,11.9180078 169.027587,11.6203066 168.956706,11.2091955 L169.764752,11.2091955 C169.807281,11.414751 169.892338,11.5565135 170.027012,11.641571 C170.154599,11.7195403 170.360154,11.7620691 170.643679,11.7620691 C171.253258,11.7620691 171.558047,11.4360154 171.558047,10.7839081 L171.558047,10.2452108 C171.288698,10.6208813 170.927204,10.8122606 170.473564,10.8122606 C169.977395,10.8122606 169.573372,10.6421457 169.268583,10.316092 C168.956706,9.98295026 168.807855,9.53639853 168.807855,8.98352496 C168.807855,8.43065139 168.956706,7.98409966 169.268583,7.64386977 C169.573372,7.30363988 169.977395,7.13352493 170.473564,7.13352493 Z M170.60115,7.78563222 C170.296361,7.78563222 170.062453,7.89195406 169.892338,8.10459774 C169.722223,8.3101533 169.637166,8.60076633 169.637166,8.98352496 C169.637166,9.33084297 169.700959,9.60019163 169.835633,9.79865907 C169.991572,10.0325671 170.239656,10.1530652 170.594062,10.1530652 C170.90594,10.1530652 171.146936,10.0467434 171.317051,9.84827592 C171.480077,9.63563224 171.565135,9.35210734 171.565135,8.98352496 C171.565135,8.60785445 171.480077,8.31724142 171.317051,8.10459774 C171.146936,7.89195406 170.90594,7.78563222 170.60115,7.78563222 Z M175.109196,7.13352493 C174.889464,7.13352493 174.690997,7.17605367 174.506706,7.26819926 C174.329503,7.35325674 174.166476,7.48793107 174.024714,7.65804601 L174.024714,7.23275865 L173.216668,7.23275865 L173.216668,10.8973181 L174.024714,10.8973181 L174.024714,8.69291192 C174.053066,8.40229889 174.1523,8.17547897 174.322415,8.01954027 C174.471265,7.87777781 174.648468,7.80689659 174.846936,7.80689659 C175.399809,7.80689659 175.676246,8.10459774 175.676246,8.70708817 L175.676246,10.8973181 L176.484292,10.8973181 L176.484292,8.63620694 C176.484292,7.62969352 176.023564,7.13352493 175.109196,7.13352493 Z M177.263986,8.72835254 L177.263986,9.39463607 L180.843488,9.39463607 L180.843488,8.72835254 L177.263986,8.72835254 Z M183.132951,5.83639848 L184.075672,5.83639848 L186.010729,10.8973181 L185.124714,10.8973181 L184.663986,9.62854412 L182.544637,9.62854412 L182.083909,10.8973181 L181.197894,10.8973181 L183.132951,5.83639848 Z M182.792721,8.94808434 L184.415901,8.94808434 L183.622032,6.72950194 L183.593679,6.72950194 L182.792721,8.94808434 Z M186.506898,5.83639848 L186.506898,10.8973181 L187.336208,10.8973181 L187.336208,5.83639848 L186.506898,5.83639848 Z M188.186783,8.72835254 L188.186783,9.39463607 L191.766285,9.39463607 L191.766285,8.72835254 L188.186783,8.72835254 Z M192.616859,5.83639848 L192.616859,10.8973181 L196.175097,10.8973181 L196.175097,10.1885058 L193.439082,10.1885058 L193.439082,5.83639848 L192.616859,5.83639848 Z M198.407856,7.13352493 C198.946553,7.13352493 199.350576,7.26819926 199.605748,7.53754793 C199.832568,7.77145597 199.945978,8.11168586 199.945978,8.55823759 L199.945978,10.8973181 L199.194637,10.8973181 L199.194637,10.4153257 C199.052875,10.5996169 198.875672,10.7342913 198.670116,10.833525 C198.436208,10.9398468 198.159771,10.9965518 197.840806,10.9965518 C197.458047,10.9965518 197.160346,10.8973181 196.940614,10.7059388 C196.713794,10.5074713 196.600384,10.259387 196.600384,9.95459777 C196.600384,9.54348665 196.756323,9.22452113 197.082377,9.00478932 C197.380078,8.79214564 197.798277,8.67873568 198.336974,8.66455943 L199.137932,8.64329507 L199.137932,8.50153261 C199.137932,8.01954027 198.875672,7.78563222 198.351151,7.78563222 C198.124331,7.78563222 197.947128,7.82107283 197.812453,7.90613031 C197.656515,7.9982759 197.550193,8.14003835 197.507664,8.33141767 L196.706706,8.26762456 C196.784675,7.86360157 196.983143,7.56590042 197.302108,7.38160923 C197.571457,7.21149428 197.940039,7.13352493 198.407856,7.13352493 Z M199.137932,9.22452113 L198.393679,9.2457855 C197.74866,9.25996174 197.429695,9.48678167 197.429695,9.92624527 C197.429695,10.0538315 197.479312,10.1601533 197.592721,10.2452108 C197.706131,10.3302683 197.847894,10.3798851 198.025097,10.3798851 C198.336974,10.3798851 198.599235,10.2877395 198.811879,10.1105365 C199.024522,9.92624527 199.137932,9.69233723 199.137932,9.40881232 L199.137932,9.22452113 Z M200.796553,5.73716476 L201.604599,5.73716476 L201.604599,7.73601536 C201.9023,7.33199237 202.270882,7.13352493 202.69617,7.13352493 C203.220691,7.13352493 203.631802,7.32490424 203.936591,7.70766287 C204.213028,8.062069 204.354791,8.50862073 204.354791,9.04731806 C204.354791,9.60727975 204.213028,10.0680077 203.929503,10.4224139 C203.617626,10.8051725 203.192338,10.9965518 202.653641,10.9965518 C202.171649,10.9965518 201.803066,10.833525 201.547894,10.5074713 L201.547894,10.8973181 L200.796553,10.8973181 L200.796553,5.73716476 Z M202.504791,7.78563222 C202.24253,7.78563222 202.029886,7.89195406 201.859771,8.10459774 C201.668392,8.33141767 201.576246,8.64329507 201.576246,9.03314181 L201.576246,9.0898468 C201.576246,9.44425293 201.647128,9.74195408 201.803066,9.96877401 C201.973181,10.2168583 202.214177,10.3444445 202.533143,10.3444445 C202.887549,10.3444445 203.14981,10.2168583 203.319925,9.96168589 C203.454599,9.74904221 203.52548,9.44425293 203.52548,9.04731806 C203.52548,8.65038319 203.447511,8.35268204 203.305748,8.14712648 C203.135633,7.90613031 202.866285,7.78563222 202.504791,7.78563222 Z" id="by-微信公众号-Design-AI-L" fill="#0E5AE5" fill-rule="evenodd" opacity="0.749207428"></path>
            </g>
            <g id="question" transform="translate(71.000000, 96.000000)" font-size="12" font-family="PingFangSC-Semibold, PingFang SC" fill="#424242" font-weight="500">
                <text>
                    <tspan x="0" y="13">按键盘上的ESC可以切换至什么模式？</tspan>
                </text>
            </g>
            <g id="title" transform="translate(71.000000, 57.000000)">
                <g>
                    <text id="Vim" font-family="PingFangSC-Semibold, PingFang SC" font-size="18" font-weight="500" fill="#0E5AE5">
                        <tspan x="43" y="19">Vim</tspan>
                    </text>
                    <path d="M2.457,11.574 L3.654,11.574 L6.111,18 L4.986,18 L4.401,16.389 L1.71,16.389 L1.125,18 L0,18 L2.457,11.574 Z M2.025,15.525 L4.086,15.525 L3.078,12.708 L3.042,12.708 L2.025,15.525 Z M6.741,11.574 L9.684,11.574 C10.323,11.574 10.827,11.727 11.187,12.033 C11.52,12.321 11.691,12.708 11.691,13.194 C11.691,13.554 11.601,13.86 11.43,14.112 C11.259,14.346 11.016,14.517 10.692,14.643 C11.115,14.724 11.43,14.895 11.646,15.156 C11.853,15.408 11.961,15.759 11.961,16.191 C11.961,16.839 11.736,17.316 11.295,17.622 C10.917,17.874 10.377,18 9.693,18 L6.741,18 L6.741,11.574 Z M7.794,12.438 L7.794,14.274 L9.405,14.274 C9.855,14.274 10.17,14.193 10.359,14.049 C10.539,13.896 10.638,13.653 10.638,13.32 C10.638,13.014 10.539,12.789 10.359,12.654 C10.161,12.51 9.855,12.438 9.423,12.438 L7.794,12.438 Z M7.794,15.138 L7.794,17.136 L9.54,17.136 C9.936,17.136 10.251,17.073 10.476,16.947 C10.764,16.785 10.908,16.533 10.908,16.173 C10.908,15.804 10.8,15.543 10.593,15.381 C10.377,15.219 10.035,15.138 9.567,15.138 L7.794,15.138 Z M15.804,11.448 C16.785,11.448 17.559,11.763 18.126,12.402 C18.666,13.005 18.936,13.806 18.936,14.796 C18.936,15.786 18.666,16.578 18.126,17.181 C17.559,17.811 16.785,18.126 15.804,18.126 C14.814,18.126 14.04,17.802 13.482,17.172 C12.942,16.56 12.681,15.768 12.681,14.796 C12.681,13.815 12.942,13.023 13.482,12.411 C14.04,11.763 14.814,11.448 15.804,11.448 Z M15.804,12.375 C15.138,12.375 14.625,12.6 14.256,13.05 C13.905,13.482 13.734,14.058 13.734,14.796 C13.734,15.525 13.905,16.101 14.256,16.533 C14.616,16.974 15.138,17.199 15.804,17.199 C16.47,17.199 16.983,16.983 17.343,16.56 C17.694,16.137 17.874,15.552 17.874,14.796 C17.874,14.04 17.694,13.446 17.343,13.014 C16.983,12.582 16.47,12.375 15.804,12.375 Z M19.926,11.574 L19.926,15.561 C19.926,16.398 20.16,17.037 20.637,17.487 C21.087,17.91 21.744,18.126 22.599,18.126 C23.445,18.126 24.102,17.91 24.57,17.478 C25.038,17.037 25.272,16.398 25.272,15.561 L25.272,11.574 L24.219,11.574 L24.219,15.579 C24.219,16.137 24.084,16.542 23.832,16.812 C23.571,17.073 23.157,17.208 22.599,17.208 C22.032,17.208 21.618,17.073 21.366,16.812 C21.105,16.542 20.979,16.137 20.979,15.579 L20.979,11.574 L19.926,11.574 Z M26.037,11.574 L26.037,12.474 L28.143,12.474 L28.143,18 L29.196,18 L29.196,12.474 L31.302,12.474 L31.302,11.574 L26.037,11.574 Z M32.67,13.311 C32.472,13.311 32.301,13.374 32.175,13.518 C32.031,13.653 31.968,13.824 31.968,14.022 C31.968,14.22 32.031,14.382 32.175,14.526 C32.301,14.652 32.472,14.724 32.67,14.724 C32.868,14.724 33.03,14.652 33.174,14.526 C33.309,14.382 33.381,14.22 33.381,14.022 C33.381,13.824 33.309,13.653 33.174,13.518 C33.03,13.374 32.868,13.311 32.67,13.311 Z M32.67,16.605 C32.472,16.605 32.301,16.668 32.175,16.812 C32.031,16.947 31.968,17.118 31.968,17.316 C31.968,17.514 32.031,17.676 32.175,17.82 C32.301,17.946 32.472,18.018 32.67,18.018 C32.868,18.018 33.03,17.946 33.174,17.82 C33.309,17.676 33.381,17.514 33.381,17.316 C33.381,17.118 33.309,16.947 33.174,16.812 C33.03,16.668 32.868,16.605 32.67,16.605 Z" id="ABOUT:" fill="#0E5AE5"></path>
                    <path d="M0.5,20.5 L203.561567,20.5" id="Line" stroke="#0E5AE5" stroke-width="0.5" stroke-linecap="square"></path>
                </g>
            </g>
            <g id="ANS" transform="translate(90.000000, 139.000000)">
                <g id="xx" transform="translate(0.000000, 66.000000)">
                    <g id="Rectangle">
                        <use fill="#FFFFFF" fill-rule="evenodd" xlink:href="#path-3"></use>
                        <rect stroke="#BBBBBB" stroke-width="1" x="0.5" y="0.5" width="167" height="39" rx="19.5"></rect>
                    </g>
                    <text id="00000-00000" font-family="PingFangSC-Semibold, PingFang SC" font-size="10" font-weight="500" fill="#424242">
                        <tspan x="41" y="23">Insert Mode 输入模式</tspan>
                    </text>
                    <circle id="Oval" fill="#E2E2E2" fill-rule="evenodd" cx="21" cy="20" r="13"></circle>
                    <text id="A" font-family="PingFangSC-Semibold, PingFang SC" font-size="12" font-weight="500" fill="#4B4B4B">
                        <tspan x="17" y="25">B</tspan>
                    </text>
                </g>
                <g id="xx" transform="translate(0.000000, 132.000000)">
                    <g id="Rectangle">
                        <use fill="#FFFFFF" fill-rule="evenodd" xlink:href="#path-4"></use>
                        <rect stroke="#BBBBBB" stroke-width="1" x="0.5" y="0.5" width="167" height="39" rx="19.5"></rect>
                    </g>
                    <text id="00000-00000" font-family="PingFangSC-Semibold, PingFang SC" font-size="10" font-weight="500" fill="#424242">
                        <tspan x="41" y="23">Visual Mode 视图模式</tspan>
                    </text>
                    <circle id="Oval" fill="#E2E2E2" fill-rule="evenodd" cx="21" cy="20" r="13"></circle>
                    <text id="A" font-family="PingFangSC-Semibold, PingFang SC" font-size="12" font-weight="500" fill="#4B4B4B">
                        <tspan x="17" y="25">C</tspan>
                    </text>
                </g>
                <g id="xx">
                    <g id="Rectangle">
                        <use fill="#FFFFFF" fill-rule="evenodd" xlink:href="#path-5"></use>
                        <rect stroke="#BBBBBB" stroke-width="1" x="0.5" y="0.5" width="167" height="39" rx="19.5"></rect>
                    </g>
                    <text id="00000-00000" font-family="PingFangSC-Semibold, PingFang SC" font-size="10" font-weight="500" fill="#424242">
                        <tspan x="41" y="23">Normail Mode 命令模式</tspan>
                    </text>
                    <circle id="Oval" fill="#E2E2E2" fill-rule="evenodd" cx="21" cy="20" r="13"></circle>
                    <text id="A" font-family="PingFangSC-Semibold, PingFang SC" font-size="12" font-weight="500" fill="#4B4B4B">
                        <tspan x="17" y="25">A</tspan>
                    </text>
                </g>
            </g>
            <g id="B" transform="translate(90.000000, 205.000000)">
              <animateTransform attributeName="transform" type="translate" values="90 205;-640 0" fill="freeze" begin="click+.5s" dur=".5s"></animateTransform>

                <g id="xx">
                    <g id="Rectangle">
                        <use fill="#FFFFFF" fill-rule="evenodd" xlink:href="#path-6"></use>
                        <rect stroke="#BBBBBB" stroke-width="1" x="0.5" y="0.5" width="167" height="39" rx="19.5"></rect>
                    </g>
                    <text id="00000-00000" font-family="PingFangSC-Semibold, PingFang SC" font-size="10" font-weight="500" fill="#424242">
                        <tspan x="41" y="23">Insert Mode 输入模式</tspan>
                    </text>
                    <circle id="Oval" fill="#E2E2E2" fill-rule="evenodd" cx="21" cy="20" r="13"></circle>
                    <text id="A" font-family="PingFangSC-Semibold, PingFang SC" font-size="12" font-weight="500" fill="#4B4B4B">
                        <tspan x="17" y="25">B</tspan>
                    </text>
                </g>
                <g id="wrongQ-B" transform="translate(735, 209)">
                    <g id="Group" transform="translate(43.000000, 144.000000)">
                        <polygon id="Star" stroke="#474747" fill="#0E5AE5" points="35.5 66.7399998 32.0203915 70.8290578 29.4053784 66.139732 25.194894 69.4713819 23.5449696 64.3619964 18.7654158 66.8082049 18.143986 61.4751105 12.9790384 62.9418711 13.4099843 57.5900157 8.05812891 58.0209616 9.52488945 52.856014 4.19179512 52.2345842 6.63800356 47.4550304 1.52861808 45.805106 4.86026801 41.5946216 0.170942203 38.9796085 4.26000017 35.5 0.170942203 32.0203915 4.86026801 29.4053784 1.52861808 25.194894 6.63800356 23.5449696 4.19179512 18.7654158 9.52488945 18.143986 8.05812891 12.9790384 13.4099843 13.4099843 12.9790384 8.05812891 18.143986 9.52488945 18.7654158 4.19179512 23.5449696 6.63800356 25.194894 1.52861808 29.4053784 4.86026801 32.0203915 0.170942203 35.5 4.26000017 38.9796085 0.170942203 41.5946216 4.86026801 45.805106 1.52861808 47.4550304 6.63800356 52.2345842 4.19179512 52.856014 9.52488945 58.0209616 8.05812891 57.5900157 13.4099843 62.9418711 12.9790384 61.4751105 18.143986 66.8082049 18.7654158 64.3619964 23.5449696 69.4713819 25.194894 66.139732 29.4053784 70.8290578 32.0203915 66.7399998 35.5 70.8290578 38.9796085 66.139732 41.5946216 69.4713819 45.805106 64.3619964 47.4550304 66.8082049 52.2345842 61.4751105 52.856014 62.9418711 58.0209616 57.5900157 57.5900157 58.0209616 62.9418711 52.856014 61.4751105 52.2345842 66.8082049 47.4550304 64.3619964 45.805106 69.4713819 41.5946216 66.139732 38.9796085 70.8290578"></polygon>
                        <path d="M27.675,49.115 L35.325,49.115 L35.325,49.754 L32.391,49.754 C32.229,50.123 32.04,50.483 31.833,50.825 L31.833,56.918 L31.167,56.918 L31.167,51.779 C30.321,52.832 29.214,53.768 27.846,54.587 L27.423,54.02 C29.457,52.85 30.879,51.428 31.671,49.754 L27.675,49.754 L27.675,49.115 Z M32.967,51.536 C34.002,52.355 34.866,53.174 35.568,53.993 L35.073,54.497 C34.443,53.705 33.588,52.868 32.499,51.977 L32.967,51.536 Z M40.293,50.393 L42.903,50.393 L42.903,48.629 L43.551,48.629 L43.551,50.393 L44.55,50.393 L44.55,51.014 L43.551,51.014 L43.551,55.964 C43.551,56.567 43.236,56.873 42.624,56.873 L41.211,56.873 L41.076,56.234 C41.544,56.261 41.985,56.279 42.399,56.279 C42.732,56.279 42.903,56.117 42.903,55.802 L42.903,51.014 L40.293,51.014 L40.293,50.393 Z M37.071,50.978 L36.639,51.383 C37.269,52.085 37.845,52.778 38.349,53.453 C37.881,54.335 37.224,55.1 36.378,55.748 L36.756,56.315 C37.584,55.631 38.25,54.857 38.745,53.993 C39.069,54.452 39.366,54.902 39.636,55.352 L40.104,54.884 C39.789,54.38 39.438,53.867 39.06,53.363 C39.528,52.364 39.78,51.248 39.825,50.024 L39.825,49.547 L36.774,49.547 L36.774,50.177 L39.24,50.177 C39.177,51.131 38.979,52.013 38.646,52.823 C38.16,52.211 37.638,51.59 37.071,50.978 Z M40.779,52.076 C41.382,52.814 41.85,53.471 42.174,54.047 L41.661,54.407 C41.301,53.786 40.842,53.129 40.284,52.436 L40.779,52.076 Z" id="不对" fill="#FFFFFF"></path>
                        <path d="M47.8653693,24.1939248 L45.3161772,24.1939248 L45.3161772,23.5079309 C45.3128412,23.1825834 45.2400621,22.8614935 45.1024905,22.5651793 C44.665966,21.6585141 43.9415031,20.9137083 43.0368523,20.4415381 C40.8228287,19.2951123 38.196309,19.1902504 35.8938975,20.1563607 C33.9947945,20.9236939 31.9221337,23.1521941 30.6841553,24.4840022 C30.3992397,24.7907395 30.0822209,25.1307965 29.9156858,25.2856351 L27.7075898,25.2856351 L27.7075898,24.3311236 C27.7075898,24.0063831 27.4380946,23.7431288 27.1056554,23.7431288 L19.1019344,23.7431288 C18.7694952,23.7431288 18.5,24.0063831 18.5,24.3311236 L18.5,39.7444267 C18.5,40.0691673 18.7694952,40.3324215 19.1019344,40.3324215 L27.1056554,40.3324215 C27.4380946,40.3324215 27.7075898,40.0691673 27.7075898,39.7444267 L27.7075898,37.6982049 C28.5793914,37.6286255 30.8958356,37.5933458 32.1217753,38.9927734 C33.1902089,40.2089426 35.470537,40.5 37.9896324,40.5 C39.1935012,40.5 40.455557,40.4333606 41.6634387,40.3686812 C42.5211952,40.3236016 43.348855,40.279502 44.09726,40.2638221 C45.3528495,40.2045284 46.3258101,39.1693258 46.2792722,37.9422227 C46.2807051,37.4858587 46.1499314,37.0384107 45.90206,36.6515742 C46.9258025,36.2909647 47.5890683,35.3202983 47.5373151,34.2584354 C47.540893,33.7173078 47.3784063,33.1875454 47.0708159,32.7374889 C47.9612667,32.3179589 48.5191877,31.4294126 48.4984037,30.4639091 C48.4999996,29.9945482 48.3702578,29.5336851 48.1231979,29.131121 C49.5094135,29.0488765 50.5686631,27.8905227 50.4965237,26.5357453 C50.4243842,25.1809679 49.2478232,24.1362169 47.8603532,24.1949048 L47.8653693,24.1939248 Z M26.503721,39.1564319 L19.7018623,39.1564319 L19.7018623,24.9220584 L26.503721,24.9220584 L26.503721,39.1564319 Z M47.908508,27.9659113 L43.125136,27.9884511 C42.7926968,27.9884511 42.5232016,28.2517053 42.5232016,28.5764459 C42.5232016,28.9011864 42.7926968,29.1644407 43.125136,29.1644407 L46.1217661,29.1644407 C46.7860745,29.2461587 47.2871499,29.793594 47.2962449,30.4475831 C47.3053399,31.1015722 46.819673,31.6621018 46.1578821,31.7614176 L42.9154622,31.7829774 C42.583023,31.7829774 42.3135278,32.0462316 42.3135278,32.3709722 C42.3135278,32.6957127 42.583023,32.958967 42.9154622,32.958967 L45.3231998,32.958967 C45.8669472,32.958967 46.3264238,33.5538217 46.3264238,34.2574554 C46.3974158,34.8740203 45.9702357,35.4399423 45.3462739,35.5559439 L42.0998411,35.6186634 C41.8847906,35.6207641 41.6872231,35.7347764 41.5815603,35.9177529 C41.4758975,36.1007295 41.478192,36.3248718 41.5875796,36.5057477 C41.6969672,36.6866236 41.8968293,36.7967536 42.1118798,36.7946529 L44.0390731,36.7946529 C44.6228785,36.8720479 45.0601824,37.3560836 45.0662221,37.9315668 C45.0722618,38.50705 44.6452088,38.9997419 44.0631504,39.0888125 C43.3027067,39.1054724 42.4630082,39.149572 41.5902033,39.1946516 C38.3086576,39.37007 34.2215231,39.5866481 33.0276866,38.2274002 C31.4787087,36.4634158 28.8251813,36.4389161 27.6965543,36.5182954 L27.6965543,26.4635847 L30.0872371,26.4635847 C30.4584299,26.4635847 30.6500457,26.2597465 31.5629795,25.2768152 C32.7337419,24.0185064 34.6930384,21.9115251 36.3433418,21.246111 C38.3112805,20.4168887 40.5576226,20.5019092 42.4539792,21.4773889 C43.1315119,21.8313243 43.6743086,22.3890416 44.0019538,23.0679148 C44.0662715,23.2134477 44.1003714,23.370006 44.1022762,23.5285107 L44.1022762,24.0400662 C43.6507763,23.925628 43.2134452,23.7632907 42.798085,23.5559505 C42.2345947,23.2704036 41.6100057,23.1189637 40.975227,23.1139744 C39.902699,23.1054347 38.8387795,23.3015067 37.8431617,23.6911893 C37.6471074,23.7776682 37.5131754,23.9597496 37.4918167,24.1688452 C37.470458,24.3779407 37.5649174,24.5822838 37.739613,24.7049004 C37.9143087,24.827517 38.1427,24.8497787 38.3387544,24.7632998 C39.1784847,24.4422071 40.0734957,24.2815225 40.975227,24.289964 C41.4218955,24.2958416 41.8608362,24.4046304 42.256344,24.6074811 C43.1945323,25.0904399 44.235778,25.3512689 45.2961127,25.3689344 L47.8573436,25.3689344 C48.6174131,25.3446823 49.2546122,25.9250741 49.2829248,26.6674229 C49.2643334,27.3941251 48.6526442,27.9720221 47.908508,27.9659113 L47.908508,27.9659113 Z" id="Shape" fill="#0E5AE5" fill-rule="nonzero" transform="translate(34.500000, 30.000000) rotate(270.000000) translate(-34.500000, -30.000000) "></path>
                        <path d="M29.7785106,16.4569198 C29.7515112,15.6822861 30.3412237,15.0310299 31.0977516,15 C31.8414499,15.0189764 32.431619,15.6473375 32.4209873,16.408867 L32.4439567,21.2836695 C32.4439567,21.622463 32.7122281,21.8971094 33.0431577,21.8971094 C33.3740873,21.8971094 33.6423588,21.622463 33.6423588,21.2836695 L33.6423588,18.2297611 C33.7163407,17.5455217 34.2754697,17.024162 34.9478124,17.0124912 C35.6201551,17.0008203 36.1962272,17.5024747 36.2928248,18.1837531 L36.3147955,21.4881495 C36.3147955,21.826943 36.5830669,22.1015894 36.9139966,22.1015894 C37.2449262,22.1015894 37.5131976,21.826943 37.5131976,21.4881495 L37.5131976,19.0343898 C37.5131976,18.4812715 38.1193893,18.01199 38.8364333,18.01199 C39.4647489,17.9396409 40.0414566,18.3749862 40.1596689,19.0108746 L40.2235837,22.3193605 C40.2257245,22.5385215 40.3419097,22.7398654 40.5283735,22.8475479 C40.7148373,22.9552304 40.9432515,22.952892 41.1275745,22.8414135 C41.3118976,22.729935 41.4241266,22.5262527 41.4219858,22.3070917 L41.4219858,20.3451064 C41.5008558,19.750142 41.9941165,19.3044794 42.5805675,19.2983242 C43.1670185,19.292169 43.6691004,19.7273849 43.7598686,20.3205688 C43.7758473,21.0955479 43.8207874,21.9512966 43.8677248,22.8407845 C44.0464865,26.184032 44.2661935,30.3503114 42.8820391,31.5669672 C41.0864332,33.1445302 41.0594692,35.8498002 41.1403613,37 L30.8940233,37 L30.8940233,34.565666 C30.8940233,34.1863556 30.6833042,33.9920996 29.6846358,33.0617158 C28.4023456,31.8706199 26.2562071,29.8718282 25.5771126,28.1899805 C24.7320866,26.1844261 24.8187274,23.895147 25.8127983,21.962543 C26.1734791,21.2720597 26.7418257,20.7188878 27.4336372,20.38498 C27.5819437,20.3194329 27.7414857,20.2846812 27.9030113,20.28274 L28.4243163,20.28274 C28.3076971,20.74287 28.1422659,21.1885604 27.9309741,21.6118598 C27.6399851,22.1861208 27.485659,22.8226483 27.4805746,23.4695604 C27.4718722,24.5625889 27.6716809,25.6468444 28.0687903,26.6614927 C28.205023,26.9703594 28.5600355,27.1076826 28.861733,26.9682126 C29.1634305,26.8287426 29.2975662,26.4652939 29.1613336,26.1564272 C28.8341214,25.300646 28.6703743,24.3885275 28.6789767,23.4695604 C28.6849663,23.0143541 28.7958285,22.5670234 29.0025453,22.1639558 C29.4947084,21.2078348 29.7605085,20.1466864 29.7785106,19.0660842 L29.7785106,16.4569198 Z M29,45 L29,38 L44,38 L44,45 L29,45 Z" id="Combined-Shape" fill="#FFFFFF"></path>
                    </g>
                    <g id="Group-2">
                        <circle id="Oval" fill="#0E5AE5" cx="16" cy="16" r="16"></circle>
                        <text id="B" font-family="PingFangSC-Semibold, PingFang SC" font-size="12" font-weight="500" fill="#FFFFFF">
                            <tspan x="11.3984615" y="20">B</tspan>
                        </text>
                    </g>
                </g>
            </g>
            <g id="C" transform="translate(90.000000, 271.000000)">
              <animateTransform attributeName="transform" type="translate" values="90 271;-640 0" fill="freeze" begin="click+.5s" dur=".5s"></animateTransform>


                <g id="xx">
                    <g id="Rectangle">
                        <use fill="#FFFFFF" fill-rule="evenodd" xlink:href="#path-7"></use>
                        <rect stroke="#BBBBBB" stroke-width="1" x="0.5" y="0.5" width="167" height="39" rx="19.5"></rect>
                    </g>
                    <text id="00000-00000" font-family="PingFangSC-Semibold, PingFang SC" font-size="10" font-weight="500" fill="#424242">
                        <tspan x="41" y="23">Visual Mode 视图模式</tspan>
                    </text>
                    <circle id="Oval" fill="#E2E2E2" fill-rule="evenodd" cx="21" cy="20" r="13"></circle>
                    <text id="A" font-family="PingFangSC-Semibold, PingFang SC" font-size="12" font-weight="500" fill="#4B4B4B">
                        <tspan x="17" y="25">C</tspan>
                    </text>
                </g>
                <g id="wrongQ-C" transform="translate(735, 275)">
                    <g id="Group" transform="translate(43.000000, 78.000000)">
                        <polygon id="Star" stroke="#474747" fill="#0E5AE5" points="35.5 66.7399998 32.0203915 70.8290578 29.4053784 66.139732 25.194894 69.4713819 23.5449696 64.3619964 18.7654158 66.8082049 18.143986 61.4751105 12.9790384 62.9418711 13.4099843 57.5900157 8.05812891 58.0209616 9.52488945 52.856014 4.19179512 52.2345842 6.63800356 47.4550304 1.52861808 45.805106 4.86026801 41.5946216 0.170942203 38.9796085 4.26000017 35.5 0.170942203 32.0203915 4.86026801 29.4053784 1.52861808 25.194894 6.63800356 23.5449696 4.19179512 18.7654158 9.52488945 18.143986 8.05812891 12.9790384 13.4099843 13.4099843 12.9790384 8.05812891 18.143986 9.52488945 18.7654158 4.19179512 23.5449696 6.63800356 25.194894 1.52861808 29.4053784 4.86026801 32.0203915 0.170942203 35.5 4.26000017 38.9796085 0.170942203 41.5946216 4.86026801 45.805106 1.52861808 47.4550304 6.63800356 52.2345842 4.19179512 52.856014 9.52488945 58.0209616 8.05812891 57.5900157 13.4099843 62.9418711 12.9790384 61.4751105 18.143986 66.8082049 18.7654158 64.3619964 23.5449696 69.4713819 25.194894 66.139732 29.4053784 70.8290578 32.0203915 66.7399998 35.5 70.8290578 38.9796085 66.139732 41.5946216 69.4713819 45.805106 64.3619964 47.4550304 66.8082049 52.2345842 61.4751105 52.856014 62.9418711 58.0209616 57.5900157 57.5900157 58.0209616 62.9418711 52.856014 61.4751105 52.2345842 66.8082049 47.4550304 64.3619964 45.805106 69.4713819 41.5946216 66.139732 38.9796085 70.8290578"></polygon>
                        <path d="M27.675,49.115 L35.325,49.115 L35.325,49.754 L32.391,49.754 C32.229,50.123 32.04,50.483 31.833,50.825 L31.833,56.918 L31.167,56.918 L31.167,51.779 C30.321,52.832 29.214,53.768 27.846,54.587 L27.423,54.02 C29.457,52.85 30.879,51.428 31.671,49.754 L27.675,49.754 L27.675,49.115 Z M32.967,51.536 C34.002,52.355 34.866,53.174 35.568,53.993 L35.073,54.497 C34.443,53.705 33.588,52.868 32.499,51.977 L32.967,51.536 Z M40.293,50.393 L42.903,50.393 L42.903,48.629 L43.551,48.629 L43.551,50.393 L44.55,50.393 L44.55,51.014 L43.551,51.014 L43.551,55.964 C43.551,56.567 43.236,56.873 42.624,56.873 L41.211,56.873 L41.076,56.234 C41.544,56.261 41.985,56.279 42.399,56.279 C42.732,56.279 42.903,56.117 42.903,55.802 L42.903,51.014 L40.293,51.014 L40.293,50.393 Z M37.071,50.978 L36.639,51.383 C37.269,52.085 37.845,52.778 38.349,53.453 C37.881,54.335 37.224,55.1 36.378,55.748 L36.756,56.315 C37.584,55.631 38.25,54.857 38.745,53.993 C39.069,54.452 39.366,54.902 39.636,55.352 L40.104,54.884 C39.789,54.38 39.438,53.867 39.06,53.363 C39.528,52.364 39.78,51.248 39.825,50.024 L39.825,49.547 L36.774,49.547 L36.774,50.177 L39.24,50.177 C39.177,51.131 38.979,52.013 38.646,52.823 C38.16,52.211 37.638,51.59 37.071,50.978 Z M40.779,52.076 C41.382,52.814 41.85,53.471 42.174,54.047 L41.661,54.407 C41.301,53.786 40.842,53.129 40.284,52.436 L40.779,52.076 Z" id="不对" fill="#FFFFFF"></path>
                        <path d="M47.8653693,24.1939248 L45.3161772,24.1939248 L45.3161772,23.5079309 C45.3128412,23.1825834 45.2400621,22.8614935 45.1024905,22.5651793 C44.665966,21.6585141 43.9415031,20.9137083 43.0368523,20.4415381 C40.8228287,19.2951123 38.196309,19.1902504 35.8938975,20.1563607 C33.9947945,20.9236939 31.9221337,23.1521941 30.6841553,24.4840022 C30.3992397,24.7907395 30.0822209,25.1307965 29.9156858,25.2856351 L27.7075898,25.2856351 L27.7075898,24.3311236 C27.7075898,24.0063831 27.4380946,23.7431288 27.1056554,23.7431288 L19.1019344,23.7431288 C18.7694952,23.7431288 18.5,24.0063831 18.5,24.3311236 L18.5,39.7444267 C18.5,40.0691673 18.7694952,40.3324215 19.1019344,40.3324215 L27.1056554,40.3324215 C27.4380946,40.3324215 27.7075898,40.0691673 27.7075898,39.7444267 L27.7075898,37.6982049 C28.5793914,37.6286255 30.8958356,37.5933458 32.1217753,38.9927734 C33.1902089,40.2089426 35.470537,40.5 37.9896324,40.5 C39.1935012,40.5 40.455557,40.4333606 41.6634387,40.3686812 C42.5211952,40.3236016 43.348855,40.279502 44.09726,40.2638221 C45.3528495,40.2045284 46.3258101,39.1693258 46.2792722,37.9422227 C46.2807051,37.4858587 46.1499314,37.0384107 45.90206,36.6515742 C46.9258025,36.2909647 47.5890683,35.3202983 47.5373151,34.2584354 C47.540893,33.7173078 47.3784063,33.1875454 47.0708159,32.7374889 C47.9612667,32.3179589 48.5191877,31.4294126 48.4984037,30.4639091 C48.4999996,29.9945482 48.3702578,29.5336851 48.1231979,29.131121 C49.5094135,29.0488765 50.5686631,27.8905227 50.4965237,26.5357453 C50.4243842,25.1809679 49.2478232,24.1362169 47.8603532,24.1949048 L47.8653693,24.1939248 Z M26.503721,39.1564319 L19.7018623,39.1564319 L19.7018623,24.9220584 L26.503721,24.9220584 L26.503721,39.1564319 Z M47.908508,27.9659113 L43.125136,27.9884511 C42.7926968,27.9884511 42.5232016,28.2517053 42.5232016,28.5764459 C42.5232016,28.9011864 42.7926968,29.1644407 43.125136,29.1644407 L46.1217661,29.1644407 C46.7860745,29.2461587 47.2871499,29.793594 47.2962449,30.4475831 C47.3053399,31.1015722 46.819673,31.6621018 46.1578821,31.7614176 L42.9154622,31.7829774 C42.583023,31.7829774 42.3135278,32.0462316 42.3135278,32.3709722 C42.3135278,32.6957127 42.583023,32.958967 42.9154622,32.958967 L45.3231998,32.958967 C45.8669472,32.958967 46.3264238,33.5538217 46.3264238,34.2574554 C46.3974158,34.8740203 45.9702357,35.4399423 45.3462739,35.5559439 L42.0998411,35.6186634 C41.8847906,35.6207641 41.6872231,35.7347764 41.5815603,35.9177529 C41.4758975,36.1007295 41.478192,36.3248718 41.5875796,36.5057477 C41.6969672,36.6866236 41.8968293,36.7967536 42.1118798,36.7946529 L44.0390731,36.7946529 C44.6228785,36.8720479 45.0601824,37.3560836 45.0662221,37.9315668 C45.0722618,38.50705 44.6452088,38.9997419 44.0631504,39.0888125 C43.3027067,39.1054724 42.4630082,39.149572 41.5902033,39.1946516 C38.3086576,39.37007 34.2215231,39.5866481 33.0276866,38.2274002 C31.4787087,36.4634158 28.8251813,36.4389161 27.6965543,36.5182954 L27.6965543,26.4635847 L30.0872371,26.4635847 C30.4584299,26.4635847 30.6500457,26.2597465 31.5629795,25.2768152 C32.7337419,24.0185064 34.6930384,21.9115251 36.3433418,21.246111 C38.3112805,20.4168887 40.5576226,20.5019092 42.4539792,21.4773889 C43.1315119,21.8313243 43.6743086,22.3890416 44.0019538,23.0679148 C44.0662715,23.2134477 44.1003714,23.370006 44.1022762,23.5285107 L44.1022762,24.0400662 C43.6507763,23.925628 43.2134452,23.7632907 42.798085,23.5559505 C42.2345947,23.2704036 41.6100057,23.1189637 40.975227,23.1139744 C39.902699,23.1054347 38.8387795,23.3015067 37.8431617,23.6911893 C37.6471074,23.7776682 37.5131754,23.9597496 37.4918167,24.1688452 C37.470458,24.3779407 37.5649174,24.5822838 37.739613,24.7049004 C37.9143087,24.827517 38.1427,24.8497787 38.3387544,24.7632998 C39.1784847,24.4422071 40.0734957,24.2815225 40.975227,24.289964 C41.4218955,24.2958416 41.8608362,24.4046304 42.256344,24.6074811 C43.1945323,25.0904399 44.235778,25.3512689 45.2961127,25.3689344 L47.8573436,25.3689344 C48.6174131,25.3446823 49.2546122,25.9250741 49.2829248,26.6674229 C49.2643334,27.3941251 48.6526442,27.9720221 47.908508,27.9659113 L47.908508,27.9659113 Z" id="Shape" fill="#0E5AE5" fill-rule="nonzero" transform="translate(34.500000, 30.000000) rotate(270.000000) translate(-34.500000, -30.000000) "></path>
                        <path d="M29.7785106,16.4569198 C29.7515112,15.6822861 30.3412237,15.0310299 31.0977516,15 C31.8414499,15.0189764 32.431619,15.6473375 32.4209873,16.408867 L32.4439567,21.2836695 C32.4439567,21.622463 32.7122281,21.8971094 33.0431577,21.8971094 C33.3740873,21.8971094 33.6423588,21.622463 33.6423588,21.2836695 L33.6423588,18.2297611 C33.7163407,17.5455217 34.2754697,17.024162 34.9478124,17.0124912 C35.6201551,17.0008203 36.1962272,17.5024747 36.2928248,18.1837531 L36.3147955,21.4881495 C36.3147955,21.826943 36.5830669,22.1015894 36.9139966,22.1015894 C37.2449262,22.1015894 37.5131976,21.826943 37.5131976,21.4881495 L37.5131976,19.0343898 C37.5131976,18.4812715 38.1193893,18.01199 38.8364333,18.01199 C39.4647489,17.9396409 40.0414566,18.3749862 40.1596689,19.0108746 L40.2235837,22.3193605 C40.2257245,22.5385215 40.3419097,22.7398654 40.5283735,22.8475479 C40.7148373,22.9552304 40.9432515,22.952892 41.1275745,22.8414135 C41.3118976,22.729935 41.4241266,22.5262527 41.4219858,22.3070917 L41.4219858,20.3451064 C41.5008558,19.750142 41.9941165,19.3044794 42.5805675,19.2983242 C43.1670185,19.292169 43.6691004,19.7273849 43.7598686,20.3205688 C43.7758473,21.0955479 43.8207874,21.9512966 43.8677248,22.8407845 C44.0464865,26.184032 44.2661935,30.3503114 42.8820391,31.5669672 C41.0864332,33.1445302 41.0594692,35.8498002 41.1403613,37 L30.8940233,37 L30.8940233,34.565666 C30.8940233,34.1863556 30.6833042,33.9920996 29.6846358,33.0617158 C28.4023456,31.8706199 26.2562071,29.8718282 25.5771126,28.1899805 C24.7320866,26.1844261 24.8187274,23.895147 25.8127983,21.962543 C26.1734791,21.2720597 26.7418257,20.7188878 27.4336372,20.38498 C27.5819437,20.3194329 27.7414857,20.2846812 27.9030113,20.28274 L28.4243163,20.28274 C28.3076971,20.74287 28.1422659,21.1885604 27.9309741,21.6118598 C27.6399851,22.1861208 27.485659,22.8226483 27.4805746,23.4695604 C27.4718722,24.5625889 27.6716809,25.6468444 28.0687903,26.6614927 C28.205023,26.9703594 28.5600355,27.1076826 28.861733,26.9682126 C29.1634305,26.8287426 29.2975662,26.4652939 29.1613336,26.1564272 C28.8341214,25.300646 28.6703743,24.3885275 28.6789767,23.4695604 C28.6849663,23.0143541 28.7958285,22.5670234 29.0025453,22.1639558 C29.4947084,21.2078348 29.7605085,20.1466864 29.7785106,19.0660842 L29.7785106,16.4569198 Z M29,45 L29,38 L44,38 L44,45 L29,45 Z" id="Combined-Shape" fill="#FFFFFF"></path>
                    </g>
                    <g id="Group-2">
                        <circle id="Oval" fill="#0E5AE5" cx="16" cy="16" r="16"></circle>
                        <text id="C" font-family="PingFangSC-Semibold, PingFang SC" font-size="12" font-weight="500" fill="#FFFFFF">
                            <tspan x="11.108" y="20">C</tspan>
                        </text>
                    </g>
                </g>
            </g>
            <g id="A" transform="translate(90.000000, 139.000000)">
              <animateTransform attributeName="transform" type="translate" values="90 139;-640 0" fill="freeze" begin="click+.5s" dur=".5s"></animateTransform>


                <g id="xx">
                    <g id="Rectangle">
                        <use fill="#FFFFFF" fill-rule="evenodd" xlink:href="#path-8"></use>
                        <rect stroke="#BBBBBB" stroke-width="1" x="0.5" y="0.5" width="167" height="39" rx="19.5"></rect>
                    </g>
                    <text id="00000-00000" font-family="PingFangSC-Semibold, PingFang SC" font-size="10" font-weight="500" fill="#424242">
                        <tspan x="41" y="23">Normail Mode 命令模式</tspan>
                    </text>
                    <circle id="Oval" fill="#E2E2E2" fill-rule="evenodd" cx="21" cy="20" r="13"></circle>
                    <text id="A" font-family="PingFangSC-Semibold, PingFang SC" font-size="12" font-weight="500" fill="#4B4B4B">
                        <tspan x="17" y="25">A</tspan>
                    </text>
                </g>
                <g id="rightQ-A" transform="translate(735, 143)">
                    <g id="Group-2">
                        <circle id="Oval" fill="#FCFF6E" cx="16" cy="16" r="16"></circle>
                        <text id="A" font-family="PingFangSC-Semibold, PingFang SC" font-size="12" font-weight="500" fill="#0E5AE5">
                            <tspan x="11.4644615" y="20">A</tspan>
                        </text>
                    </g>
                    <g id="right" transform="translate(43.000000, 210.000000)">
                        <polygon id="Star" stroke="#474747" fill="#FCFF6E" points="35.5 66.7399998 32.0203915 70.8290578 29.4053784 66.139732 25.194894 69.4713819 23.5449696 64.3619964 18.7654158 66.8082049 18.143986 61.4751105 12.9790384 62.9418711 13.4099843 57.5900157 8.05812891 58.0209616 9.52488945 52.856014 4.19179512 52.2345842 6.63800356 47.4550304 1.52861808 45.805106 4.86026801 41.5946216 0.170942203 38.9796085 4.26000017 35.5 0.170942203 32.0203915 4.86026801 29.4053784 1.52861808 25.194894 6.63800356 23.5449696 4.19179512 18.7654158 9.52488945 18.143986 8.05812891 12.9790384 13.4099843 13.4099843 12.9790384 8.05812891 18.143986 9.52488945 18.7654158 4.19179512 23.5449696 6.63800356 25.194894 1.52861808 29.4053784 4.86026801 32.0203915 0.170942203 35.5 4.26000017 38.9796085 0.170942203 41.5946216 4.86026801 45.805106 1.52861808 47.4550304 6.63800356 52.2345842 4.19179512 52.856014 9.52488945 58.0209616 8.05812891 57.5900157 13.4099843 62.9418711 12.9790384 61.4751105 18.143986 66.8082049 18.7654158 64.3619964 23.5449696 69.4713819 25.194894 66.139732 29.4053784 70.8290578 32.0203915 66.7399998 35.5 70.8290578 38.9796085 66.139732 41.5946216 69.4713819 45.805106 64.3619964 47.4550304 66.8082049 52.2345842 61.4751105 52.856014 62.9418711 58.0209616 57.5900157 57.5900157 58.0209616 62.9418711 52.856014 61.4751105 52.2345842 66.8082049 47.4550304 64.3619964 45.805106 69.4713819 41.5946216 66.139732 38.9796085 70.8290578"></polygon>
                        <path d="M49.368,26.9 L44.687,26.9 C42.968,26.9 42.24,26.621 42.081,26.457 C41.922,26.293 41.394,25.746 42.117,24.521 C42.437,23.979 42.767,23.483 43.073,23.021 C43.8558815,22.0953088 44.3625185,20.9680241 44.535,19.768 C44.535,16.522 42.975,15.955 42.045,15.906 C40.484,15.831 40.376,17.206 40.335,17.942 C40.3604233,18.3085369 40.2832017,18.6749068 40.112,19 C39.647627,19.4406518 39.1552681,19.8508396 38.638,20.228 C37.0960037,21.328225 35.7021954,22.6225476 34.491,24.079 C33.4620022,25.506932 32.289193,26.8255046 30.991,28.014 L28.871,28.014 L28.871,26.934 C28.871,26.6026292 28.6023708,26.334 28.271,26.334 L20.291,26.334 C19.9596292,26.334 19.691,26.6026292 19.691,26.934 L19.691,42.658 C19.691,42.9893708 19.9596292,43.258 20.291,43.258 L28.27,43.258 C28.6013708,43.258 28.87,42.9893708 28.87,42.658 L28.87,40.669 C29.836,40.61 31.955,40.653 33.113,42.002 C34.177,43.242 36.906,43.541 39.882,43.541 C41.374,43.541 42.929,43.466 44.365,43.396 C45.245,43.353 46.058,43.314 46.75,43.296 C48.0015544,43.2354957 48.9713883,42.1791571 48.925,40.927 C48.9273389,40.3822528 48.7486487,39.8521621 48.417,39.42 C49.1875933,38.934346 49.6439883,38.0774644 49.617,37.167 C49.6207014,36.6146579 49.4583488,36.0739469 49.151,35.615 C50.0357115,35.1868922 50.5899778,34.2826452 50.57,33.3 C50.5718799,32.7816015 50.420165,32.2742616 50.134,31.842 C51.3685423,31.5048872 52.153087,30.2944727 51.9567039,29.0298885 C51.7603208,27.7653042 50.645637,26.8498296 49.367,26.903 L49.368,26.9 Z M27.668,42.058 L20.891,42.058 L20.891,27.533 L27.671,27.533 L27.668,42.058 Z M49.406,30.75 L44.08,30.772 C43.7486292,30.7570883 43.4679117,31.0136292 43.453,31.345 C43.4380883,31.6763708 43.6946292,31.9570883 44.026,31.972 L48.201,31.972 C48.8618641,32.0583652 49.3586031,32.6176155 49.3663963,33.2840535 C49.3741894,33.9504914 48.8906638,34.5212046 48.232,34.623 L43.875,34.645 C43.5436292,34.6248416 43.2586584,34.8771292 43.2385,35.2085 C43.2183416,35.5398708 43.4706292,35.8248416 43.802,35.845 L47.412,35.845 C47.955,35.845 48.412,36.452 48.412,37.17 C48.4817615,37.7988845 48.0564035,38.3757518 47.435,38.495 L43.073,38.559 C42.7416292,38.559 42.473,38.8276292 42.473,39.159 C42.473,39.4903708 42.7416292,39.759 43.073,39.759 L46.7,39.759 C47.2819293,39.8379751 47.7178278,40.3318936 47.7238482,40.9191265 C47.7298685,41.5063594 47.3041878,42.0091108 46.724,42.1 C46.024,42.115 45.199,42.155 44.308,42.2 C40.694,42.378 35.24,42.639 34.024,41.223 C32.552,39.509 30.074,39.404 28.871,39.468 L28.871,29.217 L31.093,29.217 C32.14,29.217 35.428,24.836 35.46,24.791 C36.60819,23.4277108 37.923545,22.2144931 39.375,21.18 C39.9489508,20.7623335 40.4920266,20.3038103 41,19.808 C41.3803682,19.2878556 41.567122,18.6511948 41.528,18.008 C41.579,17.089 41.628,17.085 41.977,17.108 C43.095,17.167 43.331,18.588 43.331,19.771 C43.1309536,20.7247999 42.6973266,21.6140446 42.069,22.359 C41.752,22.836 41.411,23.349 41.079,23.912 C40.046,25.662 40.72,26.78 41.214,27.291 C41.734,27.828 42.901,28.1 44.683,28.1 L49.364,28.1 C50.121627,28.0752527 50.7567783,28.6674945 50.785,29.425 C50.765901,30.1698487 50.1510173,30.7606542 49.406,30.75 Z" id="Shape" fill="#0E5AE5" fill-rule="nonzero"></path>
                        <path d="M20.891,27.533 L27.671,27.533 L27.671,42.058 L20.891,42.058 L20.891,27.533 Z M49.368,28.1 C50.1267965,28.0724161 50.7647248,28.6642669 50.794,29.423 C50.774895,30.1694321 50.1575656,30.7608721 49.411,30.748 L44.085,30.77 C43.7536292,30.7550883 43.4729117,31.0116292 43.458,31.343 C43.4430884,31.6743708 43.6996292,31.9550883 44.031,31.97 L48.206,31.97 C48.8668641,32.0563652 49.3636031,32.6156155 49.3713963,33.2820535 C49.3791894,33.9484914 48.8956638,34.5192046 48.237,34.621 L43.88,34.643 C43.5486292,34.6228416 43.2636584,34.8751292 43.2435,35.2065 C43.2233416,35.5378708 43.4756292,35.8228416 43.807,35.843 L47.417,35.843 C47.958,35.843 48.417,36.45 48.417,37.168 C48.4867615,37.7968845 48.0614035,38.3737518 47.44,38.493 L43.078,38.557 C42.7466292,38.557 42.478,38.8256292 42.478,39.157 C42.478,39.4883708 42.7466292,39.757 43.078,39.757 L46.7,39.757 C47.2819293,39.8359751 47.7178278,40.3298936 47.7238482,40.9171265 C47.7298685,41.5043594 47.3041878,42.0071108 46.724,42.098 C46.024,42.115 45.199,42.155 44.308,42.198 C40.694,42.375 35.24,42.637 34.024,41.221 C32.553,39.507 30.071,39.402 28.871,39.466 L28.871,29.217 L31.092,29.217 C32.139,29.217 35.427,24.836 35.459,24.791 C36.60719,23.4277108 37.922545,22.2144931 39.374,21.18 C39.9496722,20.7625265 40.4944241,20.3039991 41.004,19.808 C41.3843682,19.2878556 41.571122,18.6511948 41.532,18.008 C41.581,17.089 41.63,17.086 41.981,17.108 C43.1,17.171 43.335,18.588 43.335,19.771 C43.1349536,20.7247999 42.7013266,21.6140446 42.073,22.359 C41.756,22.836 41.415,23.35 41.083,23.912 C40.05,25.662 40.724,26.78 41.218,27.291 C41.738,27.829 42.905,28.1 44.687,28.1 L49.368,28.1 Z" id="Combined-Shape" fill="#FFFFFF"></path>
                        <path d="M30.284,47.916 L30.284,53.694 L28.682,53.694 L28.682,49.536 L27.764,49.536 L27.764,53.694 L26.45,53.694 L26.45,54.612 L34.559,54.612 L34.559,53.694 L31.229,53.694 L31.229,51.111 L33.695,51.111 L33.695,50.211 L31.229,50.211 L31.229,47.916 L34.181,47.916 L34.181,46.998 L26.981,46.998 L26.981,47.916 L30.284,47.916 Z M40.409,51.606 L41.336,51.606 L41.336,52.443 L39.428,52.443 L39.428,53.298 L41.336,53.298 L41.336,54.963 L42.254,54.963 L42.254,53.298 L43.64,53.298 L43.64,52.443 L42.254,52.443 L42.254,51.606 L43.451,51.606 L43.451,50.769 L42.254,50.769 L42.254,50.022 L41.336,50.022 L41.336,50.769 L40.742,50.769 C40.796,50.589 40.841,50.4 40.886,50.184 L40.121,50.049 C39.995,50.715 39.734,51.255 39.356,51.66 L39.896,52.326 C40.094,52.119 40.265,51.876 40.409,51.606 Z M40.562,47.889 C40.49,48.132 40.4,48.348 40.283,48.528 C40.094,48.816 39.815,49.059 39.437,49.257 L39.995,49.959 C40.463,49.644 40.814,49.293 41.057,48.906 C41.219,48.6 41.345,48.267 41.435,47.889 L42.506,47.889 C42.488,48.411 42.461,48.726 42.416,48.843 C42.362,48.96 42.227,49.023 42.02,49.032 C41.813,49.014 41.552,48.996 41.237,48.969 L41.453,49.743 C41.75,49.77 42.002,49.788 42.218,49.788 C42.65,49.788 42.947,49.653 43.127,49.401 C43.307,49.14 43.397,48.357 43.406,47.061 L39.482,47.061 L39.482,47.889 L40.562,47.889 Z M36.602,51.129 L36.602,52.074 L37.16,52.074 L37.16,51.129 L36.602,51.129 Z M36.557,52.857 C36.467,53.703 36.269,54.423 35.954,55.008 L35.324,54.432 C35.639,53.802 35.801,53.01 35.81,52.038 L35.81,49.293 L35.36,48.753 C35.846,48.24 36.269,47.511 36.638,46.575 L37.493,46.773 C37.439,46.917 37.376,47.061 37.322,47.205 L38.816,47.205 L38.816,47.844 C38.654,48.159 38.501,48.438 38.339,48.672 L39.257,48.672 L39.257,54.135 C39.257,54.621 38.987,54.864 38.465,54.864 L38.06,54.864 L37.898,54.288 L37.898,54.774 L37.16,54.774 L37.16,52.857 L36.557,52.857 Z M37.385,48.672 C37.529,48.465 37.673,48.231 37.817,47.97 L36.953,47.97 C36.818,48.222 36.674,48.456 36.53,48.672 L37.385,48.672 Z M37.898,54.099 C38.015,54.117 38.123,54.135 38.213,54.135 C38.375,54.135 38.465,54.045 38.465,53.865 L38.465,52.857 L37.898,52.857 L37.898,54.099 Z M38.465,52.074 L38.465,51.129 L37.898,51.129 L37.898,52.074 L38.465,52.074 Z M38.465,50.355 L38.465,49.473 L37.898,49.473 L37.898,50.355 L38.465,50.355 Z M37.16,49.473 L36.602,49.473 L36.602,50.355 L37.16,50.355 L37.16,49.473 Z" id="正解" fill="#0E5AE5" opacity="0.760586504"></path>
                    </g>
                </g>
            </g>
        </g>
    </g>
</svg>
